G04 Layer_Color=128*
%FSLAX25Y25*%
%MOIN*%
G70*
G01*
G75*
%ADD77C,0.00200*%
D77*
X537008Y526968D02*
X544882D01*
X540945Y523032D02*
Y530905D01*
X537008Y509252D02*
X544882D01*
X540945Y505315D02*
Y513189D01*
X505217Y613386D02*
X517028D01*
X511122Y607480D02*
Y619291D01*
X721063Y613386D02*
X732874D01*
X726968Y607480D02*
Y619291D01*
X719386Y486224D02*
X731197D01*
X725291Y480319D02*
Y492130D01*
X504827Y486224D02*
X516638D01*
X510732Y480319D02*
Y492130D01*
X719386Y772043D02*
X731197D01*
X725291Y766138D02*
Y777949D01*
X505217Y772047D02*
X517028D01*
X511122Y766142D02*
Y777953D01*
X617717Y557657D02*
X621260D01*
X619488Y555886D02*
Y559429D01*
X617717Y547657D02*
X621260D01*
X619488Y545886D02*
Y549429D01*
X603740Y642283D02*
X607283D01*
X605512Y640512D02*
Y644055D01*
X603740Y622284D02*
X607283D01*
X605512Y620512D02*
Y624055D01*
X545984Y603150D02*
X549528D01*
X547756Y601378D02*
Y604921D01*
X555984Y603150D02*
X559528D01*
X557756Y601378D02*
Y604921D01*
X704728Y741500D02*
X708272D01*
X706500Y739728D02*
Y743272D01*
X704728Y751500D02*
X708272D01*
X706500Y749728D02*
Y753272D01*
X704728Y761500D02*
X708272D01*
X706500Y759728D02*
Y763272D01*
X704728Y771500D02*
X708272D01*
X706500Y769728D02*
Y773272D01*
X704728Y781500D02*
X708272D01*
X706500Y779728D02*
Y783272D01*
X679728Y761500D02*
X683272D01*
X681500Y759728D02*
Y763272D01*
X679728Y691500D02*
X683272D01*
X681500Y689728D02*
Y693272D01*
X679728Y701500D02*
X683272D01*
X681500Y699728D02*
Y703272D01*
X679728Y711500D02*
X683272D01*
X681500Y709728D02*
Y713272D01*
X679728Y721500D02*
X683272D01*
X681500Y719728D02*
Y723272D01*
X679728Y731500D02*
X683272D01*
X681500Y729728D02*
Y733272D01*
X679728Y741500D02*
X683272D01*
X681500Y739728D02*
Y743272D01*
X679728Y751500D02*
X683272D01*
X681500Y749728D02*
Y753272D01*
X679728Y771500D02*
X683272D01*
X681500Y769728D02*
Y773272D01*
X679728Y781500D02*
X683272D01*
X681500Y779728D02*
Y783272D01*
X535228Y761500D02*
X538772D01*
X537000Y759728D02*
Y763272D01*
X535228Y691500D02*
X538772D01*
X537000Y689728D02*
Y693272D01*
X535228Y701500D02*
X538772D01*
X537000Y699728D02*
Y703272D01*
X535228Y711500D02*
X538772D01*
X537000Y709728D02*
Y713272D01*
X535228Y721500D02*
X538772D01*
X537000Y719728D02*
Y723272D01*
X535228Y731500D02*
X538772D01*
X537000Y729728D02*
Y733272D01*
X535228Y741500D02*
X538772D01*
X537000Y739728D02*
Y743272D01*
X535228Y751500D02*
X538772D01*
X537000Y749728D02*
Y753272D01*
X535228Y771500D02*
X538772D01*
X537000Y769728D02*
Y773272D01*
X535228Y781500D02*
X538772D01*
X537000Y779728D02*
Y783272D01*
X674193Y509941D02*
X680886D01*
X677539Y506595D02*
Y513287D01*
X654193Y509941D02*
X660886D01*
X657539Y506595D02*
Y513287D01*
X634193Y509941D02*
X640886D01*
X637539Y506595D02*
Y513287D01*
X694193Y509941D02*
X700886D01*
X697539Y506595D02*
Y513287D01*
X597342Y509941D02*
X604035D01*
X600689Y506595D02*
Y513287D01*
X577658Y509941D02*
X584350D01*
X581004Y506595D02*
Y513287D01*
X699606Y627362D02*
X701968D01*
X700787Y626181D02*
Y628543D01*
X709842Y677165D02*
X712205D01*
X711024Y675984D02*
Y678346D01*
X675591Y670669D02*
X677953D01*
X676772Y669488D02*
Y671850D01*
X503346Y517913D02*
X505709D01*
X504528Y516732D02*
Y519095D01*
X503346Y540354D02*
X505709D01*
X504528Y539173D02*
Y541535D01*
X654035Y720866D02*
X656398D01*
X655217Y719685D02*
Y722047D01*
X678445Y627559D02*
X680807D01*
X679626Y626378D02*
Y628740D01*
X598721Y543701D02*
X601083D01*
X599902Y542520D02*
Y544882D01*
X548032Y517913D02*
X550394D01*
X549213Y516732D02*
Y519095D01*
X530512Y517913D02*
X532874D01*
X531693Y516732D02*
Y519095D01*
X656791Y650492D02*
X659154D01*
X657972Y649311D02*
Y651673D01*
X622244Y610827D02*
X624606D01*
X623425Y609646D02*
Y612008D01*
X565059Y647736D02*
X567421D01*
X566240Y646555D02*
Y648917D01*
X565453Y621161D02*
X567815D01*
X566634Y619980D02*
Y622342D01*
X527658Y602264D02*
X530020D01*
X528839Y601083D02*
Y603445D01*
X726870Y693307D02*
X729232D01*
X728051Y692126D02*
Y694488D01*
X728150Y751181D02*
X730512D01*
X729331Y750000D02*
Y752362D01*
X675591Y652559D02*
X677953D01*
X676772Y651378D02*
Y653740D01*
X730807Y647342D02*
X733169D01*
X731988Y646161D02*
Y648524D01*
X513091Y660236D02*
X515453D01*
X514272Y659055D02*
Y661417D01*
X716240Y542323D02*
X718602D01*
X717421Y541142D02*
Y543504D01*
X716240Y555413D02*
X718602D01*
X717421Y554232D02*
Y556595D01*
X716240Y568504D02*
X718602D01*
X717421Y567323D02*
Y569685D01*
X716240Y581595D02*
X718602D01*
X717421Y580413D02*
Y582776D01*
X716240Y529232D02*
X718602D01*
X717421Y528051D02*
Y530413D01*
X716240Y516142D02*
X718602D01*
X717421Y514961D02*
Y517323D01*
X658268Y496161D02*
X660630D01*
X659449Y494980D02*
Y497342D01*
X671358Y496161D02*
X673721D01*
X672539Y494980D02*
Y497342D01*
X684449Y496161D02*
X686811D01*
X685630Y494980D02*
Y497342D01*
X697539Y496161D02*
X699902D01*
X698721Y494980D02*
Y497342D01*
X645177Y496161D02*
X647539D01*
X646358Y494980D02*
Y497342D01*
X632087Y496161D02*
X634449D01*
X633268Y494980D02*
Y497342D01*
X625098Y569685D02*
X627461D01*
X626279Y568504D02*
Y570866D01*
X612008Y569685D02*
X614370D01*
X613189Y568504D02*
Y570866D01*
X598917Y569685D02*
X601279D01*
X600098Y568504D02*
Y570866D01*
X585827Y569685D02*
X588189D01*
X587008Y568504D02*
Y570866D01*
X560827Y582776D02*
X563189D01*
X562008Y581595D02*
Y583957D01*
X560827Y569882D02*
X563189D01*
X562008Y568701D02*
Y571063D01*
X560827Y556791D02*
X563189D01*
X562008Y555610D02*
Y557972D01*
X560827Y543701D02*
X563189D01*
X562008Y542520D02*
Y544882D01*
X572736Y569685D02*
X575098D01*
X573917Y568504D02*
Y570866D01*
X572736Y556595D02*
X575098D01*
X573917Y555413D02*
Y557776D01*
X572736Y543504D02*
X575098D01*
X573917Y542323D02*
Y544685D01*
X572736Y582776D02*
X575098D01*
X573917Y581595D02*
Y583957D01*
X585827Y582776D02*
X588189D01*
X587008Y581595D02*
Y583957D01*
X598917Y582776D02*
X601279D01*
X600098Y581595D02*
Y583957D01*
X612008Y582776D02*
X614370D01*
X613189Y581595D02*
Y583957D01*
X625098Y582776D02*
X627461D01*
X626279Y581595D02*
Y583957D01*
X696457Y582776D02*
X698819D01*
X697638Y581595D02*
Y583957D01*
X677461Y582776D02*
X679823D01*
X678642Y581595D02*
Y583957D01*
X663386Y582776D02*
X665748D01*
X664567Y581595D02*
Y583957D01*
X651279Y582776D02*
X653642D01*
X652461Y581595D02*
Y583957D01*
X631791Y552854D02*
X634154D01*
X632972Y551673D02*
Y554035D01*
X594291Y751575D02*
X596654D01*
X595472Y750394D02*
Y752756D01*
X607087Y751772D02*
X609449D01*
X608268Y750591D02*
Y752953D01*
X621457Y751772D02*
X623819D01*
X622638Y750591D02*
Y752953D01*
X617913Y698425D02*
X620276D01*
X619095Y697244D02*
Y699606D01*
X634154Y698425D02*
X636516D01*
X635335Y697244D02*
Y699606D01*
X517421Y517520D02*
X519783D01*
X518602Y516339D02*
Y518701D01*
X517421Y524902D02*
X519783D01*
X518602Y523721D02*
Y526083D01*
X539075Y492323D02*
X541437D01*
X540256Y491142D02*
Y493504D01*
X599803Y500000D02*
X602165D01*
X600984Y498819D02*
Y501181D01*
X589075Y488681D02*
X591437D01*
X590256Y487500D02*
Y489862D01*
X566142Y488681D02*
X568504D01*
X567323Y487500D02*
Y489862D01*
X527854Y498228D02*
X530217D01*
X529035Y497047D02*
Y499409D01*
X562402Y520669D02*
X564764D01*
X563583Y519488D02*
Y521850D01*
X625886Y622146D02*
X628248D01*
X627067Y620965D02*
Y623327D01*
X656299Y696654D02*
X658661D01*
X657480Y695472D02*
Y697835D01*
X554921Y675886D02*
X557283D01*
X556102Y674705D02*
Y677067D01*
X592815Y674803D02*
X595177D01*
X593996Y673622D02*
Y675984D01*
X633858Y677461D02*
X636221D01*
X635039Y676279D02*
Y678642D01*
X652756Y783858D02*
X655118D01*
X653937Y782677D02*
Y785039D01*
X635039Y783661D02*
X637402D01*
X636221Y782480D02*
Y784842D01*
X621457Y783268D02*
X623819D01*
X622638Y782087D02*
Y784449D01*
X607087Y783268D02*
X609449D01*
X608268Y782087D02*
Y784449D01*
X594291Y783071D02*
X596654D01*
X595472Y781890D02*
Y784252D01*
X511221Y701673D02*
X513583D01*
X512402Y700492D02*
Y702854D01*
X510630Y745669D02*
X512992D01*
X511811Y744488D02*
Y746850D01*
X595965Y726476D02*
X598327D01*
X597146Y725295D02*
Y727658D01*
X626378Y725492D02*
X628740D01*
X627559Y724311D02*
Y726673D01*
X637303Y606496D02*
X639665D01*
X638484Y605315D02*
Y607677D01*
X661713Y612106D02*
X664075D01*
X662894Y610925D02*
Y613287D01*
X685925Y612106D02*
X688287D01*
X687106Y610925D02*
Y613287D01*
X590158Y611811D02*
X592520D01*
X591339Y610630D02*
Y612992D01*
X590256Y615846D02*
X592618D01*
X591437Y614665D02*
Y617028D01*
X692028Y595669D02*
X694390D01*
X693209Y594488D02*
Y596850D01*
X667815Y595669D02*
X670177D01*
X668996Y594488D02*
Y596850D01*
X643602Y595669D02*
X645965D01*
X644783Y594488D02*
Y596850D01*
X692028Y569587D02*
X694390D01*
X693209Y568405D02*
Y570768D01*
X667815Y569587D02*
X670177D01*
X668996Y568405D02*
Y570768D01*
X643602Y569587D02*
X645965D01*
X644783Y568405D02*
Y570768D01*
X554445Y776874D02*
X556807D01*
X555626Y775693D02*
Y778055D01*
X705512Y694488D02*
X707874D01*
X706693Y693307D02*
Y695669D01*
X687795Y690945D02*
X690158D01*
X688976Y689764D02*
Y692126D01*
X653937Y675197D02*
X656299D01*
X655118Y674016D02*
Y676378D01*
X556693Y784252D02*
X559055D01*
X557874Y783071D02*
Y785433D01*
X574803Y708268D02*
X577165D01*
X575984Y707087D02*
Y709449D01*
M02*
