M48
;Layer_Color=9474304
;FILE_FORMAT=2:5
INCH,LZ
;TYPE=PLATED
T1F00S00C0.02362
T2F00S00C0.03543
T3F00S00C0.06693
T4F00S00C0.07874
T5F00S00C0.11811
%
T01
X0633268Y0496161
X0646358
X0659449
X0672539
X068563
X0698721
X0717421Y0516142
Y0529232
Y0542323
Y0555413
Y0568504
Y0581595
X0697638Y0582776
X0693209Y0595669
X0687106Y0612106
X0662894
X0668996Y0595669
X0664567Y0582776
X0652461
X0644783Y0595669
X0638484Y0606496
X0627067Y0622146
X0626279Y0582776
Y0569685
X0644783Y0569587
X0668996
X0678642Y0582776
X0693209Y0569587
X0632972Y0552854
X0613189Y0569685
X0600098
X0587008
X0573917
X0562008Y0569882
Y0582776
X0573917
X0587008
X0600098
X0613189
X0623425Y0610827
X0591339Y0611811
X0591437Y0615846
X0566634Y0621161
X0528839Y0602264
X0562008Y0556791
X0573917Y0556595
Y0543504
X0562008Y0543701
X0563583Y0520669
X0549213Y0517913
X0531693
X0518602Y051752
Y0524902
X0504528Y0517913
Y0540354
X0529035Y0498228
X0540256Y0492323
X0567323Y0488681
X0590256
X0600984Y05
X0599902Y0543701
X0593996Y0674803
X0556102Y0675886
X056624Y0647736
X0514272Y0660236
X0512402Y0701673
X0511811Y0745669
X0555626Y0776874
X0595472Y0751575
X0608268Y0751772
X0622638
X0597146Y0726476
X0575984Y0708268
X0619095Y0698425
X0635335
X0635039Y0677461
X0655118Y0675197
X065748Y0696654
X0655217Y0720866
X0627559Y0725492
X0688976Y0690945
X0706693Y0694488
X0711024Y0677165
X0728051Y0693307
X0731988Y0647342
X0700787Y0627362
X0679626Y0627559
X0676772Y0652559
Y0670669
X0657972Y0650492
X0729331Y0751181
X0653937Y0783858
X0636221Y0783661
X0622638Y0783268
X0608268
X0595472Y0783071
X0557874Y0784252
T02
X0547756Y060315
X0557756
X0605512Y0622284
X0619488Y0557657
Y0547657
X0605512Y0642283
X0537Y06915
Y07015
Y07115
Y07215
Y07315
Y07415
Y07515
Y07615
Y07715
X06815
Y07615
Y07515
Y07415
Y07315
Y07215
Y07115
Y07015
Y06915
X07065Y07415
Y07515
Y07615
Y07715
Y07815
X06815
X0537
T03
X0637539Y0509941
X0657539
X0677539
X0697539
X0600689
X0581004
T04
X0540945Y0509252
Y0526968
T05
X0725291Y0486224
X0726968Y0613386
X0511122
X0510732Y0486224
X0511122Y0772047
X0725291Y0772043
M30
