G04 Layer_Color=8421504*
%FSLAX25Y25*%
%MOIN*%
G70*
G01*
G75*
%ADD10R,0.09449X0.11024*%
%ADD11C,0.03937*%
%ADD12R,0.01968X0.03543*%
%ADD13R,0.03543X0.01968*%
%ADD14R,0.03543X0.03150*%
%ADD15R,0.02362X0.05118*%
%ADD16R,0.17362X0.16142*%
%ADD17R,0.05118X0.11614*%
%ADD18R,0.23622X0.07874*%
%ADD19R,0.05276X0.07087*%
%ADD20R,0.07874X0.03543*%
%ADD21R,0.24488X0.27008*%
%ADD22R,0.03937X0.07874*%
%ADD23R,0.07874X0.03937*%
%ADD24R,0.03740X0.03347*%
%ADD25R,0.05512X0.01772*%
%ADD26R,0.06000X0.03937*%
%ADD27R,0.11614X0.05118*%
D10*
X518504Y533268D02*
D03*
X563386D02*
D03*
Y509252D02*
D03*
X518504D02*
D03*
D11*
X610532Y587697D02*
D03*
X649311Y636811D02*
D03*
X643405Y630905D02*
D03*
X633465Y628445D02*
D03*
X622638Y692126D02*
D03*
X600984Y606102D02*
D03*
D12*
X621654Y634252D02*
D03*
X627874D02*
D03*
X659409Y606004D02*
D03*
X653189D02*
D03*
X619350Y537598D02*
D03*
X613130D02*
D03*
X619350Y531595D02*
D03*
X613130D02*
D03*
X706516Y606004D02*
D03*
X700295D02*
D03*
X682963D02*
D03*
X676742D02*
D03*
X627874Y627953D02*
D03*
X621654D02*
D03*
X621693Y640256D02*
D03*
X627913D02*
D03*
X709488Y724803D02*
D03*
X715709D02*
D03*
X715709Y717717D02*
D03*
X709488D02*
D03*
X646890Y691339D02*
D03*
X653110D02*
D03*
X696610Y781500D02*
D03*
X690390D02*
D03*
X696610Y771500D02*
D03*
X690390D02*
D03*
D13*
X693209Y601516D02*
D03*
Y607736D02*
D03*
X668947Y601516D02*
D03*
Y607736D02*
D03*
X644685Y601516D02*
D03*
Y607736D02*
D03*
X593504Y605965D02*
D03*
Y599744D02*
D03*
X666929Y678287D02*
D03*
Y684508D02*
D03*
X655118Y678287D02*
D03*
Y684508D02*
D03*
X661024Y678287D02*
D03*
Y684508D02*
D03*
X527953Y751221D02*
D03*
Y757441D02*
D03*
Y775236D02*
D03*
Y781457D02*
D03*
X563386Y746496D02*
D03*
Y752716D02*
D03*
X614173Y680354D02*
D03*
Y686575D02*
D03*
X569533Y783110D02*
D03*
Y776890D02*
D03*
X563386Y756390D02*
D03*
Y762610D02*
D03*
Y776890D02*
D03*
Y783110D02*
D03*
X649500Y723390D02*
D03*
Y729610D02*
D03*
X655500Y739890D02*
D03*
Y746110D02*
D03*
X649500Y742610D02*
D03*
Y736390D02*
D03*
X551181Y710276D02*
D03*
Y716496D02*
D03*
X557087D02*
D03*
Y710276D02*
D03*
D14*
X659842Y592126D02*
D03*
Y599213D02*
D03*
X651968Y595669D02*
D03*
X683366Y592126D02*
D03*
Y599213D02*
D03*
X675492Y595669D02*
D03*
X706890Y592126D02*
D03*
Y599213D02*
D03*
X699016Y595669D02*
D03*
X712992Y703543D02*
D03*
Y710630D02*
D03*
X705118Y707087D02*
D03*
X704331Y717717D02*
D03*
Y724803D02*
D03*
X696457Y721260D02*
D03*
D15*
X693189Y562649D02*
D03*
X698189D02*
D03*
X703189D02*
D03*
X708189D02*
D03*
X668976D02*
D03*
X673976D02*
D03*
X678976D02*
D03*
X683976D02*
D03*
X644764D02*
D03*
X649764D02*
D03*
X654764D02*
D03*
X659764D02*
D03*
D16*
X700689Y546949D02*
D03*
X676476D02*
D03*
X652264D02*
D03*
D17*
X608661Y652756D02*
D03*
X596654D02*
D03*
X584941Y605905D02*
D03*
X572933D02*
D03*
D18*
X605512Y640551D02*
D03*
Y624016D02*
D03*
D19*
X607992Y613779D02*
D03*
X596732D02*
D03*
D20*
X585039Y649114D02*
D03*
Y642421D02*
D03*
Y635728D02*
D03*
Y629035D02*
D03*
X584842Y622441D02*
D03*
D21*
X550000Y635827D02*
D03*
D22*
X588287Y715850D02*
D03*
X596161D02*
D03*
X604035D02*
D03*
X611909D02*
D03*
X619783D02*
D03*
X627658D02*
D03*
D23*
X637500Y721756D02*
D03*
X578445Y776874D02*
D03*
Y769000D02*
D03*
Y761126D02*
D03*
Y721756D02*
D03*
Y729630D02*
D03*
Y737504D02*
D03*
Y745378D02*
D03*
Y753252D02*
D03*
X637500Y729630D02*
D03*
Y737504D02*
D03*
Y745378D02*
D03*
Y753252D02*
D03*
Y761126D02*
D03*
Y769000D02*
D03*
Y776874D02*
D03*
D24*
X568898Y745472D02*
D03*
Y751378D02*
D03*
D25*
X623819Y684744D02*
D03*
Y682185D02*
D03*
Y679626D02*
D03*
Y677067D02*
D03*
Y674508D02*
D03*
Y671949D02*
D03*
Y669390D02*
D03*
Y666831D02*
D03*
Y664272D02*
D03*
Y661713D02*
D03*
Y659154D02*
D03*
Y656595D02*
D03*
Y654035D02*
D03*
Y651476D02*
D03*
X647047Y684744D02*
D03*
Y682185D02*
D03*
Y679626D02*
D03*
Y677067D02*
D03*
Y674508D02*
D03*
Y671949D02*
D03*
Y669390D02*
D03*
Y666831D02*
D03*
Y664272D02*
D03*
Y661713D02*
D03*
Y659154D02*
D03*
Y656595D02*
D03*
Y654035D02*
D03*
Y651476D02*
D03*
D26*
X609154Y675591D02*
D03*
X579823D02*
D03*
X541634D02*
D03*
X570965D02*
D03*
D27*
X566929Y720079D02*
D03*
Y708071D02*
D03*
M02*
