G04 Layer_Physical_Order=2*
G04 Layer_Color=16711680*
%FSLAX25Y25*%
%MOIN*%
G70*
G01*
G75*
%ADD11C,0.03937*%
%ADD28C,0.11811*%
%ADD30C,0.01968*%
%ADD34C,0.01000*%
%ADD40C,0.19685*%
%ADD41R,0.05905X0.05905*%
%ADD42C,0.05905*%
%ADD43C,0.06000*%
%ADD44R,0.05905X0.05905*%
%ADD45C,0.11811*%
%ADD46C,0.03543*%
G36*
X510733Y786286D02*
X725291D01*
X725347Y786298D01*
X727522Y786126D01*
X729698Y785604D01*
X731765Y784748D01*
X733672Y783579D01*
X735374Y782126D01*
X736827Y780424D01*
X737996Y778516D01*
X738852Y776449D01*
X739374Y774274D01*
X739545Y772099D01*
X739535Y772043D01*
Y486216D01*
X739545Y486163D01*
X739374Y483994D01*
X738852Y481818D01*
X737996Y479751D01*
X736827Y477844D01*
X735374Y476142D01*
X733672Y474689D01*
X731765Y473520D01*
X729698Y472664D01*
X727522Y472141D01*
X725782Y472005D01*
X725291Y471981D01*
Y471981D01*
X725288Y471980D01*
X510732D01*
X510677Y471970D01*
X508502Y472141D01*
X506326Y472663D01*
X504259Y473519D01*
X502351Y474688D01*
X500650Y476141D01*
X499197Y477843D01*
X498028Y479750D01*
X497172Y481818D01*
X496649Y483993D01*
X496478Y486166D01*
X496489Y486221D01*
Y771556D01*
X496489Y772048D01*
X496489Y772048D01*
X496512Y772539D01*
X496649Y774279D01*
X497172Y776454D01*
X498028Y778521D01*
X499197Y780429D01*
X500650Y782131D01*
X502351Y783584D01*
X504259Y784753D01*
X506326Y785609D01*
X508502Y786131D01*
X510660Y786301D01*
X510733Y786286D01*
D02*
G37*
%LPC*%
G36*
X687106Y614798D02*
X686410Y614706D01*
X685760Y614437D01*
X685203Y614010D01*
X685060Y613824D01*
X664940D01*
X664797Y614010D01*
X664240Y614437D01*
X663590Y614706D01*
X662894Y614798D01*
X662197Y614706D01*
X661548Y614437D01*
X660990Y614010D01*
X660848Y613824D01*
X644095D01*
X643437Y613693D01*
X642880Y613321D01*
X638717Y609157D01*
X638484Y609188D01*
X637788Y609096D01*
X637139Y608827D01*
X636581Y608399D01*
X636153Y607842D01*
X635884Y607193D01*
X635793Y606496D01*
X635884Y605799D01*
X636153Y605150D01*
X636581Y604593D01*
X636767Y604450D01*
Y516578D01*
X600689D01*
X599394Y516451D01*
X598149Y516073D01*
X597001Y515460D01*
X595996Y514634D01*
X595170Y513628D01*
X594557Y512481D01*
X594179Y511236D01*
X594052Y509941D01*
Y495466D01*
X593904Y495319D01*
X541824D01*
X533975Y503168D01*
X525240Y511903D01*
Y517520D01*
Y524902D01*
Y533169D01*
X525112Y534464D01*
X524735Y535709D01*
X524121Y536857D01*
X523296Y537863D01*
X523197Y537961D01*
X522191Y538787D01*
X521044Y539400D01*
X519799Y539778D01*
X518504Y539905D01*
X517209Y539778D01*
X515964Y539400D01*
X514816Y538787D01*
X513810Y537961D01*
X512985Y536955D01*
X512372Y535808D01*
X511994Y534563D01*
X511867Y533268D01*
X511965Y532268D01*
Y524902D01*
Y517520D01*
Y509154D01*
X512092Y507859D01*
X512470Y506613D01*
X513084Y505466D01*
X513909Y504460D01*
X524588Y493781D01*
X534381Y483988D01*
X535387Y483162D01*
X536535Y482549D01*
X537780Y482171D01*
X539075Y482044D01*
X596654D01*
X597948Y482171D01*
X599194Y482549D01*
X600341Y483162D01*
X601347Y483988D01*
X605382Y488023D01*
X606208Y489029D01*
X606821Y490176D01*
X607199Y491422D01*
X607326Y492717D01*
Y503303D01*
X637539D01*
X638834Y503431D01*
X640079Y503809D01*
X641227Y504422D01*
X642233Y505247D01*
X643058Y506253D01*
X643672Y507401D01*
X644049Y508646D01*
X644177Y509941D01*
X644049Y511236D01*
X643672Y512481D01*
X643058Y513628D01*
X642233Y514634D01*
X641227Y515460D01*
X640202Y516008D01*
Y604450D01*
X640387Y604593D01*
X640815Y605150D01*
X641084Y605799D01*
X641176Y606496D01*
X641145Y606728D01*
X644806Y610389D01*
X660848D01*
X660990Y610203D01*
X661548Y609775D01*
X662197Y609507D01*
X662894Y609415D01*
X663590Y609507D01*
X664240Y609775D01*
X664797Y610203D01*
X664940Y610389D01*
X685060D01*
X685203Y610203D01*
X685760Y609775D01*
X686410Y609507D01*
X687106Y609415D01*
X687803Y609507D01*
X688452Y609775D01*
X689010Y610203D01*
X689437Y610760D01*
X689706Y611410D01*
X689798Y612106D01*
X689706Y612803D01*
X689437Y613452D01*
X689010Y614010D01*
X688452Y614437D01*
X687803Y614706D01*
X687106Y614798D01*
D02*
G37*
G36*
X605512Y626015D02*
X604546Y625888D01*
X603646Y625515D01*
X602873Y624922D01*
X602280Y624149D01*
X601907Y623249D01*
X601780Y622284D01*
X601907Y621318D01*
X602280Y620417D01*
X602873Y619645D01*
X603646Y619052D01*
X604546Y618679D01*
X605512Y618551D01*
X606478Y618679D01*
X607378Y619052D01*
X608151Y619645D01*
X608744Y620417D01*
X609117Y621318D01*
X609244Y622284D01*
X609117Y623249D01*
X608744Y624149D01*
X608151Y624922D01*
X607378Y625515D01*
X606478Y625888D01*
X605512Y626015D01*
D02*
G37*
G36*
X726968Y623961D02*
X725314Y623831D01*
X723701Y623443D01*
X722167Y622808D01*
X720753Y621941D01*
X719491Y620864D01*
X718413Y619602D01*
X717546Y618187D01*
X716911Y616654D01*
X716524Y615040D01*
X716393Y613386D01*
X716524Y611731D01*
X716911Y610118D01*
X717546Y608585D01*
X718413Y607170D01*
X719491Y605908D01*
X720753Y604830D01*
X722167Y603963D01*
X723701Y603328D01*
X725314Y602941D01*
X726968Y602811D01*
X728623Y602941D01*
X730236Y603328D01*
X731770Y603963D01*
X733184Y604830D01*
X734446Y605908D01*
X735524Y607170D01*
X736391Y608585D01*
X737026Y610118D01*
X737413Y611731D01*
X737544Y613386D01*
X737413Y615040D01*
X737026Y616654D01*
X736391Y618187D01*
X735524Y619602D01*
X734446Y620864D01*
X733184Y621941D01*
X731770Y622808D01*
X730236Y623443D01*
X728623Y623831D01*
X726968Y623961D01*
D02*
G37*
G36*
X557756Y606834D02*
X556802Y606708D01*
X555914Y606340D01*
X555151Y605755D01*
X554565Y604992D01*
X554197Y604103D01*
X554072Y603150D01*
X554197Y602196D01*
X554565Y601307D01*
X555151Y600544D01*
X555914Y599959D01*
X556802Y599591D01*
X557756Y599465D01*
X558709Y599591D01*
X559598Y599959D01*
X560361Y600544D01*
X560947Y601307D01*
X561315Y602196D01*
X561440Y603150D01*
X561315Y604103D01*
X560947Y604992D01*
X560361Y605755D01*
X559598Y606340D01*
X558709Y606708D01*
X557756Y606834D01*
D02*
G37*
G36*
X511122Y623961D02*
X509468Y623831D01*
X507854Y623443D01*
X506321Y622808D01*
X504906Y621941D01*
X503644Y620864D01*
X502567Y619602D01*
X501699Y618187D01*
X501064Y616654D01*
X500677Y615040D01*
X500547Y613386D01*
X500677Y611731D01*
X501064Y610118D01*
X501699Y608585D01*
X502567Y607170D01*
X503644Y605908D01*
X504906Y604830D01*
X506321Y603963D01*
X507854Y603328D01*
X509468Y602941D01*
X511122Y602811D01*
X512776Y602941D01*
X514390Y603328D01*
X515923Y603963D01*
X517338Y604830D01*
X518600Y605908D01*
X519677Y607170D01*
X520544Y608585D01*
X521180Y610118D01*
X521567Y611731D01*
X521697Y613386D01*
X521567Y615040D01*
X521180Y616654D01*
X520544Y618187D01*
X519677Y619602D01*
X518600Y620864D01*
X517338Y621941D01*
X515923Y622808D01*
X514390Y623443D01*
X512776Y623831D01*
X511122Y623961D01*
D02*
G37*
G36*
X681500Y695184D02*
X680546Y695059D01*
X679658Y694691D01*
X678895Y694105D01*
X678309Y693342D01*
X677941Y692454D01*
X677816Y691500D01*
X677941Y690546D01*
X678309Y689658D01*
X678895Y688895D01*
X679658Y688309D01*
X680546Y687941D01*
X681500Y687816D01*
X682454Y687941D01*
X683342Y688309D01*
X684105Y688895D01*
X684691Y689658D01*
X685059Y690546D01*
X685184Y691500D01*
X685059Y692454D01*
X684691Y693342D01*
X684105Y694105D01*
X683342Y694691D01*
X682454Y695059D01*
X681500Y695184D01*
D02*
G37*
G36*
X555626Y779565D02*
X554929Y779474D01*
X554280Y779205D01*
X553723Y778777D01*
X553295Y778220D01*
X553026Y777571D01*
X552935Y776874D01*
X553026Y776177D01*
X553295Y775528D01*
X553723Y774971D01*
X553909Y774828D01*
Y770358D01*
X554039Y769701D01*
X554412Y769144D01*
X558235Y765321D01*
X558792Y764949D01*
X559449Y764818D01*
X679003D01*
X679172Y764318D01*
X678895Y764105D01*
X678309Y763342D01*
X677941Y762454D01*
X677816Y761500D01*
X677941Y760546D01*
X678309Y759658D01*
X678895Y758895D01*
X679658Y758309D01*
X680546Y757941D01*
X681500Y757816D01*
X682454Y757941D01*
X683342Y758309D01*
X684105Y758895D01*
X684691Y759658D01*
X685059Y760546D01*
X685184Y761500D01*
X685059Y762454D01*
X684691Y763342D01*
X684105Y764105D01*
X683828Y764318D01*
X683997Y764818D01*
X690234D01*
X697102Y757950D01*
Y702362D01*
X697232Y701705D01*
X697605Y701148D01*
X704032Y694721D01*
X704001Y694488D01*
X704093Y693792D01*
X704362Y693142D01*
X704790Y692585D01*
X705347Y692157D01*
X705996Y691888D01*
X706693Y691797D01*
X707389Y691888D01*
X708039Y692157D01*
X708596Y692585D01*
X709024Y693142D01*
X709293Y693792D01*
X709384Y694488D01*
X709293Y695185D01*
X709024Y695834D01*
X708596Y696391D01*
X708039Y696819D01*
X707389Y697088D01*
X706693Y697180D01*
X706461Y697149D01*
X700536Y703074D01*
Y758661D01*
X700405Y759319D01*
X700033Y759876D01*
X692159Y767750D01*
X691602Y768122D01*
X690945Y768253D01*
X684090D01*
X683920Y768753D01*
X684105Y768895D01*
X684691Y769658D01*
X685059Y770546D01*
X685184Y771500D01*
X685059Y772454D01*
X684691Y773342D01*
X684105Y774105D01*
X683342Y774691D01*
X682454Y775059D01*
X681500Y775184D01*
X680546Y775059D01*
X679658Y774691D01*
X678895Y774105D01*
X678309Y773342D01*
X677941Y772454D01*
X677816Y771500D01*
X677941Y770546D01*
X678309Y769658D01*
X678895Y768895D01*
X679080Y768753D01*
X678910Y768253D01*
X560160D01*
X557343Y771070D01*
Y774828D01*
X557529Y774971D01*
X557957Y775528D01*
X558226Y776177D01*
X558318Y776874D01*
X558226Y777571D01*
X557957Y778220D01*
X557529Y778777D01*
X556972Y779205D01*
X556323Y779474D01*
X555626Y779565D01*
D02*
G37*
G36*
X537000Y695184D02*
X536046Y695059D01*
X535158Y694691D01*
X534395Y694105D01*
X533809Y693342D01*
X533441Y692454D01*
X533316Y691500D01*
X533441Y690546D01*
X533809Y689658D01*
X534395Y688895D01*
X535158Y688309D01*
X536046Y687941D01*
X537000Y687816D01*
X537954Y687941D01*
X538842Y688309D01*
X539605Y688895D01*
X540191Y689658D01*
X540559Y690546D01*
X540684Y691500D01*
X540559Y692454D01*
X540191Y693342D01*
X539605Y694105D01*
X538842Y694691D01*
X537954Y695059D01*
X537000Y695184D01*
D02*
G37*
G36*
X605512Y646015D02*
X604546Y645888D01*
X603646Y645515D01*
X602873Y644922D01*
X602280Y644149D01*
X601907Y643249D01*
X601780Y642283D01*
X601907Y641318D01*
X602280Y640417D01*
X602873Y639645D01*
X603646Y639051D01*
X604546Y638679D01*
X605512Y638552D01*
X606478Y638679D01*
X607378Y639051D01*
X608151Y639645D01*
X608744Y640417D01*
X609117Y641318D01*
X609244Y642283D01*
X609117Y643249D01*
X608744Y644149D01*
X608151Y644922D01*
X607378Y645515D01*
X606478Y645888D01*
X605512Y646015D01*
D02*
G37*
G36*
X688976Y693636D02*
X688280Y693545D01*
X687631Y693276D01*
X687073Y692848D01*
X686645Y692291D01*
X686377Y691642D01*
X686285Y690945D01*
X686377Y690248D01*
X686645Y689599D01*
X687073Y689042D01*
X687631Y688614D01*
X687753Y688563D01*
Y680034D01*
X684139Y676420D01*
X657500D01*
X657449Y676543D01*
X657021Y677100D01*
X656464Y677528D01*
X655815Y677797D01*
X655118Y677888D01*
X654422Y677797D01*
X653772Y677528D01*
X653215Y677100D01*
X652787Y676543D01*
X652518Y675893D01*
X652427Y675197D01*
X652518Y674500D01*
X652787Y673851D01*
X653215Y673294D01*
X653772Y672866D01*
X654422Y672597D01*
X655118Y672505D01*
X655815Y672597D01*
X656464Y672866D01*
X657021Y673294D01*
X657449Y673851D01*
X657500Y673973D01*
X684646D01*
X685114Y674066D01*
X685511Y674332D01*
X689842Y678662D01*
X690107Y679059D01*
X690200Y679528D01*
Y688563D01*
X690322Y688614D01*
X690880Y689042D01*
X691307Y689599D01*
X691576Y690248D01*
X691668Y690945D01*
X691576Y691642D01*
X691307Y692291D01*
X690880Y692848D01*
X690322Y693276D01*
X689673Y693545D01*
X688976Y693636D01*
D02*
G37*
G36*
X693209Y598361D02*
X692512Y598269D01*
X691863Y598000D01*
X691305Y597573D01*
X690878Y597015D01*
X690609Y596366D01*
X690517Y595669D01*
X690609Y594973D01*
X690878Y594323D01*
X691305Y593766D01*
X691491Y593623D01*
Y571632D01*
X691305Y571490D01*
X690878Y570932D01*
X690609Y570283D01*
X690517Y569587D01*
X690609Y568890D01*
X690878Y568241D01*
X691305Y567683D01*
X691863Y567256D01*
X692512Y566987D01*
X693209Y566895D01*
X693905Y566987D01*
X694554Y567256D01*
X695112Y567683D01*
X695540Y568241D01*
X695809Y568890D01*
X695900Y569587D01*
X695809Y570283D01*
X695540Y570932D01*
X695112Y571490D01*
X694926Y571632D01*
Y593623D01*
X695112Y593766D01*
X695540Y594323D01*
X695809Y594973D01*
X695900Y595669D01*
X695809Y596366D01*
X695540Y597015D01*
X695112Y597573D01*
X694554Y598000D01*
X693905Y598269D01*
X693209Y598361D01*
D02*
G37*
G36*
X677539Y516578D02*
X676244Y516451D01*
X674999Y516073D01*
X673852Y515460D01*
X672846Y514634D01*
X672020Y513628D01*
X671407Y512481D01*
X671029Y511236D01*
X670902Y509941D01*
X671029Y508646D01*
X671407Y507401D01*
X672020Y506253D01*
X672846Y505247D01*
X673852Y504422D01*
X674999Y503809D01*
X676244Y503431D01*
X677539Y503303D01*
X678834Y503431D01*
X680079Y503809D01*
X681227Y504422D01*
X682233Y505247D01*
X683058Y506253D01*
X683672Y507401D01*
X684049Y508646D01*
X684177Y509941D01*
X684049Y511236D01*
X683672Y512481D01*
X683058Y513628D01*
X682233Y514634D01*
X681227Y515460D01*
X680079Y516073D01*
X678834Y516451D01*
X677539Y516578D01*
D02*
G37*
G36*
X697539D02*
X696244Y516451D01*
X694999Y516073D01*
X693852Y515460D01*
X692846Y514634D01*
X692021Y513628D01*
X691407Y512481D01*
X691029Y511236D01*
X690902Y509941D01*
X691029Y508646D01*
X691407Y507401D01*
X692021Y506253D01*
X692846Y505247D01*
X693852Y504422D01*
X694999Y503809D01*
X696244Y503431D01*
X697539Y503303D01*
X698834Y503431D01*
X700079Y503809D01*
X701227Y504422D01*
X702233Y505247D01*
X703058Y506253D01*
X703672Y507401D01*
X704049Y508646D01*
X704177Y509941D01*
X704049Y511236D01*
X703672Y512481D01*
X703058Y513628D01*
X702233Y514634D01*
X701227Y515460D01*
X700079Y516073D01*
X698834Y516451D01*
X697539Y516578D01*
D02*
G37*
G36*
X657539D02*
X656245Y516451D01*
X654999Y516073D01*
X653852Y515460D01*
X652846Y514634D01*
X652021Y513628D01*
X651407Y512481D01*
X651029Y511236D01*
X650902Y509941D01*
X651029Y508646D01*
X651407Y507401D01*
X652021Y506253D01*
X652846Y505247D01*
X653852Y504422D01*
X654999Y503809D01*
X656245Y503431D01*
X657539Y503303D01*
X658834Y503431D01*
X660079Y503809D01*
X661227Y504422D01*
X662233Y505247D01*
X663058Y506253D01*
X663672Y507401D01*
X664049Y508646D01*
X664177Y509941D01*
X664049Y511236D01*
X663672Y512481D01*
X663058Y513628D01*
X662233Y514634D01*
X661227Y515460D01*
X660079Y516073D01*
X658834Y516451D01*
X657539Y516578D01*
D02*
G37*
G36*
X510732Y496800D02*
X509078Y496669D01*
X507464Y496282D01*
X505931Y495647D01*
X504516Y494780D01*
X503255Y493702D01*
X502177Y492440D01*
X501310Y491025D01*
X500675Y489492D01*
X500287Y487879D01*
X500157Y486224D01*
X500287Y484570D01*
X500675Y482957D01*
X501310Y481423D01*
X502177Y480009D01*
X503255Y478747D01*
X504516Y477669D01*
X505931Y476802D01*
X507464Y476167D01*
X509078Y475779D01*
X510732Y475649D01*
X512387Y475779D01*
X514000Y476167D01*
X515533Y476802D01*
X516948Y477669D01*
X518210Y478747D01*
X519288Y480009D01*
X520155Y481423D01*
X520790Y482957D01*
X521177Y484570D01*
X521307Y486224D01*
X521177Y487879D01*
X520790Y489492D01*
X520155Y491025D01*
X519288Y492440D01*
X518210Y493702D01*
X516948Y494780D01*
X515533Y495647D01*
X514000Y496282D01*
X512387Y496669D01*
X510732Y496800D01*
D02*
G37*
G36*
X725291D02*
X723637Y496669D01*
X722023Y496282D01*
X720490Y495647D01*
X719075Y494780D01*
X717814Y493702D01*
X716736Y492440D01*
X715869Y491025D01*
X715234Y489492D01*
X714846Y487879D01*
X714716Y486224D01*
X714846Y484570D01*
X715234Y482957D01*
X715869Y481423D01*
X716736Y480009D01*
X717814Y478747D01*
X719075Y477669D01*
X720490Y476802D01*
X722023Y476167D01*
X723637Y475779D01*
X725291Y475649D01*
X726946Y475779D01*
X728559Y476167D01*
X730092Y476802D01*
X731507Y477669D01*
X732769Y478747D01*
X733847Y480009D01*
X734714Y481423D01*
X735349Y482957D01*
X735736Y484570D01*
X735866Y486224D01*
X735736Y487879D01*
X735349Y489492D01*
X734714Y491025D01*
X733847Y492440D01*
X732769Y493702D01*
X731507Y494780D01*
X730092Y495647D01*
X728559Y496282D01*
X726946Y496669D01*
X725291Y496800D01*
D02*
G37*
G36*
X644783Y598361D02*
X644087Y598269D01*
X643438Y598000D01*
X642880Y597573D01*
X642452Y597015D01*
X642184Y596366D01*
X642092Y595669D01*
X642184Y594973D01*
X642452Y594323D01*
X642880Y593766D01*
X643066Y593623D01*
Y571632D01*
X642880Y571490D01*
X642452Y570932D01*
X642184Y570283D01*
X642092Y569587D01*
X642184Y568890D01*
X642452Y568241D01*
X642880Y567683D01*
X643438Y567256D01*
X644087Y566987D01*
X644783Y566895D01*
X645480Y566987D01*
X646129Y567256D01*
X646687Y567683D01*
X647114Y568241D01*
X647383Y568890D01*
X647475Y569587D01*
X647383Y570283D01*
X647114Y570932D01*
X646687Y571490D01*
X646501Y571632D01*
Y593623D01*
X646687Y593766D01*
X647114Y594323D01*
X647383Y594973D01*
X647475Y595669D01*
X647383Y596366D01*
X647114Y597015D01*
X646687Y597573D01*
X646129Y598000D01*
X645480Y598269D01*
X644783Y598361D01*
D02*
G37*
G36*
X668996D02*
X668299Y598269D01*
X667650Y598000D01*
X667093Y597573D01*
X666665Y597015D01*
X666396Y596366D01*
X666304Y595669D01*
X666396Y594973D01*
X666665Y594323D01*
X667093Y593766D01*
X667279Y593623D01*
Y571632D01*
X667093Y571490D01*
X666665Y570932D01*
X666396Y570283D01*
X666304Y569587D01*
X666396Y568890D01*
X666665Y568241D01*
X667093Y567683D01*
X667650Y567256D01*
X668299Y566987D01*
X668996Y566895D01*
X669693Y566987D01*
X670342Y567256D01*
X670899Y567683D01*
X671327Y568241D01*
X671596Y568890D01*
X671688Y569587D01*
X671596Y570283D01*
X671327Y570932D01*
X670899Y571490D01*
X670713Y571632D01*
Y593623D01*
X670899Y593766D01*
X671327Y594323D01*
X671596Y594973D01*
X671688Y595669D01*
X671596Y596366D01*
X671327Y597015D01*
X670899Y597573D01*
X670342Y598000D01*
X669693Y598269D01*
X668996Y598361D01*
D02*
G37*
G36*
X619488Y551342D02*
X618535Y551216D01*
X617646Y550848D01*
X616883Y550263D01*
X616297Y549500D01*
X615930Y548611D01*
X615804Y547657D01*
X615930Y546704D01*
X616297Y545815D01*
X616883Y545052D01*
X617646Y544467D01*
X618535Y544099D01*
X619488Y543973D01*
X620442Y544099D01*
X621330Y544467D01*
X622093Y545052D01*
X622679Y545815D01*
X623047Y546704D01*
X623173Y547657D01*
X623047Y548611D01*
X622679Y549500D01*
X622093Y550263D01*
X621330Y550848D01*
X620442Y551216D01*
X619488Y551342D01*
D02*
G37*
G36*
X540945Y513929D02*
X539734Y513770D01*
X538606Y513302D01*
X537638Y512559D01*
X536895Y511590D01*
X536427Y510463D01*
X536268Y509252D01*
X536427Y508041D01*
X536895Y506914D01*
X537638Y505945D01*
X538606Y505202D01*
X539734Y504734D01*
X540945Y504575D01*
X542155Y504734D01*
X543283Y505202D01*
X544252Y505945D01*
X544995Y506914D01*
X545463Y508041D01*
X545622Y509252D01*
X545463Y510463D01*
X544995Y511590D01*
X544252Y512559D01*
X543283Y513302D01*
X542155Y513770D01*
X540945Y513929D01*
D02*
G37*
G36*
Y531645D02*
X539734Y531486D01*
X538606Y531019D01*
X537638Y530276D01*
X536895Y529307D01*
X536427Y528179D01*
X536268Y526968D01*
X536427Y525758D01*
X536895Y524630D01*
X537638Y523661D01*
X538606Y522918D01*
X539734Y522451D01*
X540945Y522292D01*
X542155Y522451D01*
X543283Y522918D01*
X544252Y523661D01*
X544995Y524630D01*
X545463Y525758D01*
X545622Y526968D01*
X545463Y528179D01*
X544995Y529307D01*
X544252Y530276D01*
X543283Y531019D01*
X542155Y531486D01*
X540945Y531645D01*
D02*
G37*
G36*
X706500Y765184D02*
X705546Y765059D01*
X704658Y764691D01*
X703895Y764105D01*
X703309Y763342D01*
X702941Y762454D01*
X702816Y761500D01*
X702941Y760546D01*
X703309Y759658D01*
X703895Y758895D01*
X704658Y758309D01*
X705546Y757941D01*
X706500Y757816D01*
X707454Y757941D01*
X708342Y758309D01*
X709105Y758895D01*
X709691Y759658D01*
X710059Y760546D01*
X710184Y761500D01*
X710059Y762454D01*
X709691Y763342D01*
X709105Y764105D01*
X708342Y764691D01*
X707454Y765059D01*
X706500Y765184D01*
D02*
G37*
G36*
X725291Y782618D02*
X723637Y782488D01*
X722023Y782101D01*
X720490Y781466D01*
X719075Y780599D01*
X717814Y779521D01*
X716736Y778259D01*
X715869Y776844D01*
X715234Y775311D01*
X714846Y773698D01*
X714716Y772043D01*
X714846Y770389D01*
X715234Y768775D01*
X715869Y767242D01*
X716736Y765827D01*
X717814Y764566D01*
X719075Y763488D01*
X720490Y762621D01*
X722023Y761986D01*
X723637Y761598D01*
X725291Y761468D01*
X726946Y761598D01*
X728559Y761986D01*
X730092Y762621D01*
X731507Y763488D01*
X732769Y764566D01*
X733847Y765827D01*
X734714Y767242D01*
X735349Y768775D01*
X735736Y770389D01*
X735866Y772043D01*
X735736Y773698D01*
X735349Y775311D01*
X734714Y776844D01*
X733847Y778259D01*
X732769Y779521D01*
X731507Y780599D01*
X730092Y781466D01*
X728559Y782101D01*
X726946Y782488D01*
X725291Y782618D01*
D02*
G37*
G36*
X537000Y765184D02*
X536046Y765059D01*
X535158Y764691D01*
X534395Y764105D01*
X533809Y763342D01*
X533441Y762454D01*
X533316Y761500D01*
X533441Y760546D01*
X533809Y759658D01*
X534395Y758895D01*
X535158Y758309D01*
X536046Y757941D01*
X537000Y757816D01*
X537954Y757941D01*
X538842Y758309D01*
X539605Y758895D01*
X540191Y759658D01*
X540559Y760546D01*
X540684Y761500D01*
X540559Y762454D01*
X540191Y763342D01*
X539605Y764105D01*
X538842Y764691D01*
X537954Y765059D01*
X537000Y765184D01*
D02*
G37*
G36*
X681500Y755184D02*
X680546Y755059D01*
X679658Y754691D01*
X678895Y754105D01*
X678309Y753342D01*
X677941Y752454D01*
X677816Y751500D01*
X677941Y750546D01*
X678309Y749658D01*
X678895Y748895D01*
X679658Y748309D01*
X680546Y747941D01*
X681500Y747816D01*
X682454Y747941D01*
X683342Y748309D01*
X684105Y748895D01*
X684691Y749658D01*
X685059Y750546D01*
X685184Y751500D01*
X685059Y752454D01*
X684691Y753342D01*
X684105Y754105D01*
X683342Y754691D01*
X682454Y755059D01*
X681500Y755184D01*
D02*
G37*
G36*
X706500D02*
X705546Y755059D01*
X704658Y754691D01*
X703895Y754105D01*
X703309Y753342D01*
X702941Y752454D01*
X702816Y751500D01*
X702941Y750546D01*
X703309Y749658D01*
X703895Y748895D01*
X704658Y748309D01*
X705546Y747941D01*
X706500Y747816D01*
X707454Y747941D01*
X708342Y748309D01*
X709105Y748895D01*
X709691Y749658D01*
X710059Y750546D01*
X710184Y751500D01*
X710059Y752454D01*
X709691Y753342D01*
X709105Y754105D01*
X708342Y754691D01*
X707454Y755059D01*
X706500Y755184D01*
D02*
G37*
G36*
X511122Y782622D02*
X509468Y782492D01*
X507854Y782105D01*
X506321Y781470D01*
X504906Y780603D01*
X503644Y779525D01*
X502567Y778263D01*
X501699Y776848D01*
X501064Y775315D01*
X500677Y773702D01*
X500547Y772047D01*
X500677Y770393D01*
X501064Y768779D01*
X501699Y767246D01*
X502567Y765831D01*
X503644Y764570D01*
X504906Y763492D01*
X506321Y762625D01*
X507854Y761990D01*
X509468Y761602D01*
X511122Y761472D01*
X512776Y761602D01*
X514390Y761990D01*
X515923Y762625D01*
X517338Y763492D01*
X518600Y764570D01*
X519677Y765831D01*
X520544Y767246D01*
X521180Y768779D01*
X521567Y770393D01*
X521697Y772047D01*
X521567Y773702D01*
X521180Y775315D01*
X520544Y776848D01*
X519677Y778263D01*
X518600Y779525D01*
X517338Y780603D01*
X515923Y781470D01*
X514390Y782105D01*
X512776Y782492D01*
X511122Y782622D01*
D02*
G37*
G36*
X685153Y785153D02*
X677847D01*
Y777847D01*
X685153D01*
Y785153D01*
D02*
G37*
G36*
X710153D02*
X702847D01*
Y777847D01*
X710153D01*
Y785153D01*
D02*
G37*
G36*
X540653D02*
X533347D01*
Y777847D01*
X540653D01*
Y785153D01*
D02*
G37*
G36*
X537000Y775184D02*
X536046Y775059D01*
X535158Y774691D01*
X534395Y774105D01*
X533809Y773342D01*
X533441Y772454D01*
X533316Y771500D01*
X533441Y770546D01*
X533809Y769658D01*
X534395Y768895D01*
X535158Y768309D01*
X536046Y767941D01*
X537000Y767816D01*
X537954Y767941D01*
X538842Y768309D01*
X539605Y768895D01*
X540191Y769658D01*
X540559Y770546D01*
X540684Y771500D01*
X540559Y772454D01*
X540191Y773342D01*
X539605Y774105D01*
X538842Y774691D01*
X537954Y775059D01*
X537000Y775184D01*
D02*
G37*
G36*
X706500D02*
X705546Y775059D01*
X704658Y774691D01*
X703895Y774105D01*
X703309Y773342D01*
X702941Y772454D01*
X702816Y771500D01*
X702941Y770546D01*
X703309Y769658D01*
X703895Y768895D01*
X704658Y768309D01*
X705546Y767941D01*
X706500Y767816D01*
X707454Y767941D01*
X708342Y768309D01*
X709105Y768895D01*
X709691Y769658D01*
X710059Y770546D01*
X710184Y771500D01*
X710059Y772454D01*
X709691Y773342D01*
X709105Y774105D01*
X708342Y774691D01*
X707454Y775059D01*
X706500Y775184D01*
D02*
G37*
G36*
X681500Y715184D02*
X680546Y715059D01*
X679658Y714691D01*
X678895Y714105D01*
X678309Y713342D01*
X677941Y712454D01*
X677816Y711500D01*
X677941Y710546D01*
X678309Y709658D01*
X678895Y708895D01*
X679658Y708309D01*
X680546Y707941D01*
X681500Y707816D01*
X682454Y707941D01*
X683342Y708309D01*
X684105Y708895D01*
X684691Y709658D01*
X685059Y710546D01*
X685184Y711500D01*
X685059Y712454D01*
X684691Y713342D01*
X684105Y714105D01*
X683342Y714691D01*
X682454Y715059D01*
X681500Y715184D01*
D02*
G37*
G36*
X537000Y725184D02*
X536046Y725059D01*
X535158Y724691D01*
X534395Y724105D01*
X533809Y723342D01*
X533441Y722454D01*
X533316Y721500D01*
X533441Y720546D01*
X533809Y719658D01*
X534395Y718895D01*
X535158Y718309D01*
X536046Y717941D01*
X537000Y717816D01*
X537954Y717941D01*
X538842Y718309D01*
X539605Y718895D01*
X540191Y719658D01*
X540559Y720546D01*
X540684Y721500D01*
X540559Y722454D01*
X540191Y723342D01*
X539605Y724105D01*
X538842Y724691D01*
X537954Y725059D01*
X537000Y725184D01*
D02*
G37*
G36*
Y715184D02*
X536046Y715059D01*
X535158Y714691D01*
X534395Y714105D01*
X533809Y713342D01*
X533441Y712454D01*
X533316Y711500D01*
X533441Y710546D01*
X533809Y709658D01*
X534395Y708895D01*
X535158Y708309D01*
X536046Y707941D01*
X537000Y707816D01*
X537954Y707941D01*
X538842Y708309D01*
X539605Y708895D01*
X540191Y709658D01*
X540559Y710546D01*
X540684Y711500D01*
X540559Y712454D01*
X540191Y713342D01*
X539605Y714105D01*
X538842Y714691D01*
X537954Y715059D01*
X537000Y715184D01*
D02*
G37*
G36*
Y705184D02*
X536046Y705059D01*
X535158Y704691D01*
X534395Y704105D01*
X533809Y703342D01*
X533441Y702454D01*
X533316Y701500D01*
X533441Y700546D01*
X533809Y699658D01*
X534395Y698895D01*
X535158Y698309D01*
X536046Y697941D01*
X537000Y697816D01*
X537954Y697941D01*
X538842Y698309D01*
X539605Y698895D01*
X540191Y699658D01*
X540559Y700546D01*
X540684Y701500D01*
X540559Y702454D01*
X540191Y703342D01*
X539605Y704105D01*
X538842Y704691D01*
X537954Y705059D01*
X537000Y705184D01*
D02*
G37*
G36*
X681500D02*
X680546Y705059D01*
X679658Y704691D01*
X678895Y704105D01*
X678309Y703342D01*
X677941Y702454D01*
X677816Y701500D01*
X677941Y700546D01*
X678309Y699658D01*
X678895Y698895D01*
X679658Y698309D01*
X680546Y697941D01*
X681500Y697816D01*
X682454Y697941D01*
X683342Y698309D01*
X684105Y698895D01*
X684691Y699658D01*
X685059Y700546D01*
X685184Y701500D01*
X685059Y702454D01*
X684691Y703342D01*
X684105Y704105D01*
X683342Y704691D01*
X682454Y705059D01*
X681500Y705184D01*
D02*
G37*
G36*
Y725184D02*
X680546Y725059D01*
X679658Y724691D01*
X678895Y724105D01*
X678309Y723342D01*
X677941Y722454D01*
X677816Y721500D01*
X677941Y720546D01*
X678309Y719658D01*
X678895Y718895D01*
X679658Y718309D01*
X680546Y717941D01*
X681500Y717816D01*
X682454Y717941D01*
X683342Y718309D01*
X684105Y718895D01*
X684691Y719658D01*
X685059Y720546D01*
X685184Y721500D01*
X685059Y722454D01*
X684691Y723342D01*
X684105Y724105D01*
X683342Y724691D01*
X682454Y725059D01*
X681500Y725184D01*
D02*
G37*
G36*
Y745184D02*
X680546Y745059D01*
X679658Y744691D01*
X678895Y744105D01*
X678309Y743342D01*
X677941Y742454D01*
X677816Y741500D01*
X677941Y740546D01*
X678309Y739658D01*
X678895Y738895D01*
X679658Y738309D01*
X680546Y737941D01*
X681500Y737816D01*
X682454Y737941D01*
X683342Y738309D01*
X684105Y738895D01*
X684691Y739658D01*
X685059Y740546D01*
X685184Y741500D01*
X685059Y742454D01*
X684691Y743342D01*
X684105Y744105D01*
X683342Y744691D01*
X682454Y745059D01*
X681500Y745184D01*
D02*
G37*
G36*
X537000Y755184D02*
X536046Y755059D01*
X535158Y754691D01*
X534395Y754105D01*
X533809Y753342D01*
X533441Y752454D01*
X533316Y751500D01*
X533441Y750546D01*
X533809Y749658D01*
X534395Y748895D01*
X535158Y748309D01*
X536046Y747941D01*
X537000Y747816D01*
X537954Y747941D01*
X538842Y748309D01*
X539605Y748895D01*
X540191Y749658D01*
X540559Y750546D01*
X540684Y751500D01*
X540559Y752454D01*
X540191Y753342D01*
X539605Y754105D01*
X538842Y754691D01*
X537954Y755059D01*
X537000Y755184D01*
D02*
G37*
G36*
Y745184D02*
X536046Y745059D01*
X535158Y744691D01*
X534395Y744105D01*
X533809Y743342D01*
X533441Y742454D01*
X533316Y741500D01*
X533441Y740546D01*
X533809Y739658D01*
X534395Y738895D01*
X535158Y738309D01*
X536046Y737941D01*
X537000Y737816D01*
X537954Y737941D01*
X538842Y738309D01*
X539605Y738895D01*
X540191Y739658D01*
X540559Y740546D01*
X540684Y741500D01*
X540559Y742454D01*
X540191Y743342D01*
X539605Y744105D01*
X538842Y744691D01*
X537954Y745059D01*
X537000Y745184D01*
D02*
G37*
G36*
Y735184D02*
X536046Y735059D01*
X535158Y734691D01*
X534395Y734105D01*
X533809Y733342D01*
X533441Y732454D01*
X533316Y731500D01*
X533441Y730546D01*
X533809Y729658D01*
X534395Y728895D01*
X535158Y728309D01*
X536046Y727941D01*
X537000Y727816D01*
X537954Y727941D01*
X538842Y728309D01*
X539605Y728895D01*
X540191Y729658D01*
X540559Y730546D01*
X540684Y731500D01*
X540559Y732454D01*
X540191Y733342D01*
X539605Y734105D01*
X538842Y734691D01*
X537954Y735059D01*
X537000Y735184D01*
D02*
G37*
G36*
X681500D02*
X680546Y735059D01*
X679658Y734691D01*
X678895Y734105D01*
X678309Y733342D01*
X677941Y732454D01*
X677816Y731500D01*
X677941Y730546D01*
X678309Y729658D01*
X678895Y728895D01*
X679658Y728309D01*
X680546Y727941D01*
X681500Y727816D01*
X682454Y727941D01*
X683342Y728309D01*
X684105Y728895D01*
X684691Y729658D01*
X685059Y730546D01*
X685184Y731500D01*
X685059Y732454D01*
X684691Y733342D01*
X684105Y734105D01*
X683342Y734691D01*
X682454Y735059D01*
X681500Y735184D01*
D02*
G37*
%LPD*%
D11*
X711024Y677165D02*
D03*
X676772Y670669D02*
D03*
X504528Y517913D02*
D03*
Y540354D02*
D03*
X655217Y720866D02*
D03*
X679626Y627559D02*
D03*
X599902Y543701D02*
D03*
X549213Y517913D02*
D03*
X531693D02*
D03*
X657972Y650492D02*
D03*
X623425Y610827D02*
D03*
X566240Y647736D02*
D03*
X566634Y621161D02*
D03*
X528839Y602264D02*
D03*
X728051Y693307D02*
D03*
X729331Y751181D02*
D03*
X676772Y652559D02*
D03*
X731988Y647342D02*
D03*
X514272Y660236D02*
D03*
X595472Y751575D02*
D03*
X608268Y751772D02*
D03*
X622638D02*
D03*
X619095Y698425D02*
D03*
X635335D02*
D03*
X518602Y517520D02*
D03*
Y524902D02*
D03*
X540256Y492323D02*
D03*
X600984Y500000D02*
D03*
X590256Y488681D02*
D03*
X567323D02*
D03*
X529035Y498228D02*
D03*
X563583Y520669D02*
D03*
X627067Y622146D02*
D03*
X657480Y696654D02*
D03*
X556102Y675886D02*
D03*
X593996Y674803D02*
D03*
X635039Y677461D02*
D03*
X653937Y783858D02*
D03*
X636221Y783661D02*
D03*
X622638Y783268D02*
D03*
X608268D02*
D03*
X595472Y783071D02*
D03*
X512402Y701673D02*
D03*
X511811Y745669D02*
D03*
X597146Y726476D02*
D03*
X627559Y725492D02*
D03*
X638484Y606496D02*
D03*
X662894Y612106D02*
D03*
X687106D02*
D03*
X591339Y611811D02*
D03*
X591437Y615846D02*
D03*
X693209Y595669D02*
D03*
X668996D02*
D03*
X644783D02*
D03*
X693209Y569587D02*
D03*
X668996D02*
D03*
X644783D02*
D03*
X555626Y776874D02*
D03*
X706693Y694488D02*
D03*
X688976Y690945D02*
D03*
X655118Y675197D02*
D03*
X557874Y784252D02*
D03*
X575984Y708268D02*
D03*
D28*
X600689Y492717D02*
Y509941D01*
X539075Y488681D02*
X567323D01*
X518602Y509154D02*
X539075Y488681D01*
X518602Y517520D02*
Y524902D01*
Y509154D02*
Y517520D01*
Y524902D02*
Y533169D01*
X518504Y533268D02*
X518602Y533169D01*
X590256Y488681D02*
X596654D01*
X567323D02*
X590256D01*
X596654D02*
X600689Y492717D01*
Y509941D02*
X637539D01*
D30*
X638484Y510886D02*
Y606496D01*
X559449Y766535D02*
X690945D01*
X662894Y612106D02*
X687106D01*
X644095D02*
X662894D01*
X638484Y606496D02*
X644095Y612106D01*
X693209Y569587D02*
Y595669D01*
X668996Y569587D02*
Y595669D01*
X644783Y569587D02*
Y595669D01*
X555626Y770358D02*
X559449Y766535D01*
X555626Y770358D02*
Y776874D01*
X690945Y766535D02*
X698819Y758661D01*
Y702362D02*
X706693Y694488D01*
X698819Y702362D02*
Y758661D01*
D34*
X688976Y679528D02*
Y690945D01*
X684646Y675197D02*
X688976Y679528D01*
X655118Y675197D02*
X684646D01*
D40*
X511122Y613386D02*
D03*
X726968D02*
D03*
X725291Y486224D02*
D03*
X510732D02*
D03*
X725291Y772043D02*
D03*
X511122Y772047D02*
D03*
D41*
X619488Y557657D02*
D03*
X706500Y781500D02*
D03*
X681500D02*
D03*
X537000D02*
D03*
D42*
X619488Y547657D02*
D03*
X557756Y603150D02*
D03*
X706500Y741500D02*
D03*
Y751500D02*
D03*
Y761500D02*
D03*
Y771500D02*
D03*
X681500Y761500D02*
D03*
Y691500D02*
D03*
Y701500D02*
D03*
Y711500D02*
D03*
Y721500D02*
D03*
Y731500D02*
D03*
Y741500D02*
D03*
Y751500D02*
D03*
Y771500D02*
D03*
X537000Y761500D02*
D03*
Y691500D02*
D03*
Y701500D02*
D03*
Y711500D02*
D03*
Y721500D02*
D03*
Y731500D02*
D03*
Y741500D02*
D03*
Y751500D02*
D03*
Y771500D02*
D03*
D43*
X605512Y642283D02*
D03*
Y622284D02*
D03*
D44*
X547756Y603150D02*
D03*
D45*
X677539Y509941D02*
D03*
X657539D02*
D03*
X637539D02*
D03*
X697539D02*
D03*
X600689D02*
D03*
X581004D02*
D03*
D46*
X700787Y627362D02*
D03*
X717421Y542323D02*
D03*
Y555413D02*
D03*
Y568504D02*
D03*
Y581595D02*
D03*
Y529232D02*
D03*
Y516142D02*
D03*
X659449Y496161D02*
D03*
X672539D02*
D03*
X685630D02*
D03*
X698721D02*
D03*
X646358D02*
D03*
X633268D02*
D03*
X626279Y569685D02*
D03*
X613189D02*
D03*
X600098D02*
D03*
X587008D02*
D03*
X562008Y582776D02*
D03*
Y569882D02*
D03*
Y556791D02*
D03*
Y543701D02*
D03*
X573917Y569685D02*
D03*
Y556595D02*
D03*
Y543504D02*
D03*
Y582776D02*
D03*
X587008D02*
D03*
X600098D02*
D03*
X613189D02*
D03*
X626279D02*
D03*
X697638D02*
D03*
X678642D02*
D03*
X664567D02*
D03*
X652461D02*
D03*
X632972Y552854D02*
D03*
M02*
