G04 Layer_Color=8388736*
%FSLAX25Y25*%
%MOIN*%
G70*
G01*
G75*
%ADD52R,0.10249X0.11824*%
%ADD53C,0.04737*%
%ADD54R,0.02768X0.04343*%
%ADD55R,0.04343X0.02768*%
%ADD56R,0.04343X0.03950*%
%ADD57R,0.03162X0.05918*%
%ADD58R,0.18162X0.16942*%
%ADD59R,0.05918X0.12414*%
%ADD60R,0.24422X0.08674*%
%ADD61R,0.06076X0.07887*%
%ADD62R,0.08674X0.04343*%
%ADD63R,0.25288X0.27808*%
%ADD64R,0.04737X0.08674*%
%ADD65R,0.08674X0.04737*%
%ADD66R,0.04540X0.04147*%
%ADD67R,0.06312X0.02572*%
%ADD68R,0.06800X0.04737*%
%ADD69R,0.12414X0.05918*%
%ADD70C,0.00800*%
%ADD71C,0.20485*%
%ADD72R,0.06706X0.06706*%
%ADD73C,0.06706*%
%ADD74C,0.06800*%
%ADD75R,0.06706X0.06706*%
%ADD76C,0.12611*%
D52*
X518504Y533268D02*
D03*
X563386D02*
D03*
Y509252D02*
D03*
X518504D02*
D03*
D53*
X610532Y587697D02*
D03*
X649311Y636811D02*
D03*
X643405Y630905D02*
D03*
X633465Y628445D02*
D03*
X622638Y692126D02*
D03*
X600984Y606102D02*
D03*
D54*
X621654Y634252D02*
D03*
X627874D02*
D03*
X659409Y606004D02*
D03*
X653189D02*
D03*
X619350Y537598D02*
D03*
X613130D02*
D03*
X619350Y531595D02*
D03*
X613130D02*
D03*
X706516Y606004D02*
D03*
X700295D02*
D03*
X682963D02*
D03*
X676742D02*
D03*
X627874Y627953D02*
D03*
X621654D02*
D03*
X621693Y640256D02*
D03*
X627913D02*
D03*
X709488Y724803D02*
D03*
X715709D02*
D03*
X715709Y717717D02*
D03*
X709488D02*
D03*
X646890Y691339D02*
D03*
X653110D02*
D03*
X696610Y781500D02*
D03*
X690390D02*
D03*
X696610Y771500D02*
D03*
X690390D02*
D03*
D55*
X693209Y601516D02*
D03*
Y607736D02*
D03*
X668947Y601516D02*
D03*
Y607736D02*
D03*
X644685Y601516D02*
D03*
Y607736D02*
D03*
X593504Y605965D02*
D03*
Y599744D02*
D03*
X666929Y678287D02*
D03*
Y684508D02*
D03*
X655118Y678287D02*
D03*
Y684508D02*
D03*
X661024Y678287D02*
D03*
Y684508D02*
D03*
X527953Y751221D02*
D03*
Y757441D02*
D03*
Y775236D02*
D03*
Y781457D02*
D03*
X563386Y746496D02*
D03*
Y752716D02*
D03*
X614173Y680354D02*
D03*
Y686575D02*
D03*
X569533Y783110D02*
D03*
Y776890D02*
D03*
X563386Y756390D02*
D03*
Y762610D02*
D03*
Y776890D02*
D03*
Y783110D02*
D03*
X649500Y723390D02*
D03*
Y729610D02*
D03*
X655500Y739890D02*
D03*
Y746110D02*
D03*
X649500Y742610D02*
D03*
Y736390D02*
D03*
X551181Y710276D02*
D03*
Y716496D02*
D03*
X557087D02*
D03*
Y710276D02*
D03*
D56*
X659842Y592126D02*
D03*
Y599213D02*
D03*
X651968Y595669D02*
D03*
X683366Y592126D02*
D03*
Y599213D02*
D03*
X675492Y595669D02*
D03*
X706890Y592126D02*
D03*
Y599213D02*
D03*
X699016Y595669D02*
D03*
X712992Y703543D02*
D03*
Y710630D02*
D03*
X705118Y707087D02*
D03*
X704331Y717717D02*
D03*
Y724803D02*
D03*
X696457Y721260D02*
D03*
D57*
X693189Y562649D02*
D03*
X698189D02*
D03*
X703189D02*
D03*
X708189D02*
D03*
X668976D02*
D03*
X673976D02*
D03*
X678976D02*
D03*
X683976D02*
D03*
X644764D02*
D03*
X649764D02*
D03*
X654764D02*
D03*
X659764D02*
D03*
D58*
X700689Y546949D02*
D03*
X676476D02*
D03*
X652264D02*
D03*
D59*
X608661Y652756D02*
D03*
X596654D02*
D03*
X584941Y605905D02*
D03*
X572933D02*
D03*
D60*
X605512Y640551D02*
D03*
Y624016D02*
D03*
D61*
X607992Y613779D02*
D03*
X596732D02*
D03*
D62*
X585039Y649114D02*
D03*
Y642421D02*
D03*
Y635728D02*
D03*
Y629035D02*
D03*
X584842Y622441D02*
D03*
D63*
X550000Y635827D02*
D03*
D64*
X588287Y715850D02*
D03*
X596161D02*
D03*
X604035D02*
D03*
X611909D02*
D03*
X619783D02*
D03*
X627658D02*
D03*
D65*
X637500Y721756D02*
D03*
X578445Y776874D02*
D03*
Y769000D02*
D03*
Y761126D02*
D03*
Y721756D02*
D03*
Y729630D02*
D03*
Y737504D02*
D03*
Y745378D02*
D03*
Y753252D02*
D03*
X637500Y729630D02*
D03*
Y737504D02*
D03*
Y745378D02*
D03*
Y753252D02*
D03*
Y761126D02*
D03*
Y769000D02*
D03*
Y776874D02*
D03*
D66*
X568898Y745472D02*
D03*
Y751378D02*
D03*
D67*
X623819Y684744D02*
D03*
Y682185D02*
D03*
Y679626D02*
D03*
Y677067D02*
D03*
Y674508D02*
D03*
Y671949D02*
D03*
Y669390D02*
D03*
Y666831D02*
D03*
Y664272D02*
D03*
Y661713D02*
D03*
Y659154D02*
D03*
Y656595D02*
D03*
Y654035D02*
D03*
Y651476D02*
D03*
X647047Y684744D02*
D03*
Y682185D02*
D03*
Y679626D02*
D03*
Y677067D02*
D03*
Y674508D02*
D03*
Y671949D02*
D03*
Y669390D02*
D03*
Y666831D02*
D03*
Y664272D02*
D03*
Y661713D02*
D03*
Y659154D02*
D03*
Y656595D02*
D03*
Y654035D02*
D03*
Y651476D02*
D03*
D68*
X609154Y675591D02*
D03*
X579823D02*
D03*
X541634D02*
D03*
X570965D02*
D03*
D69*
X566929Y720079D02*
D03*
Y708071D02*
D03*
D70*
X540945Y526968D02*
D03*
Y509252D02*
D03*
D71*
X511122Y613386D02*
D03*
X726968D02*
D03*
X725291Y486224D02*
D03*
X510732D02*
D03*
X725291Y772043D02*
D03*
X511122Y772047D02*
D03*
D72*
X619488Y557657D02*
D03*
X706500Y781500D02*
D03*
X681500D02*
D03*
X537000D02*
D03*
D73*
X619488Y547657D02*
D03*
X557756Y603150D02*
D03*
X706500Y741500D02*
D03*
Y751500D02*
D03*
Y761500D02*
D03*
Y771500D02*
D03*
X681500Y761500D02*
D03*
Y691500D02*
D03*
Y701500D02*
D03*
Y711500D02*
D03*
Y721500D02*
D03*
Y731500D02*
D03*
Y741500D02*
D03*
Y751500D02*
D03*
Y771500D02*
D03*
X537000Y761500D02*
D03*
Y691500D02*
D03*
Y701500D02*
D03*
Y711500D02*
D03*
Y721500D02*
D03*
Y731500D02*
D03*
Y741500D02*
D03*
Y751500D02*
D03*
Y771500D02*
D03*
D74*
X605512Y642283D02*
D03*
Y622284D02*
D03*
D75*
X547756Y603150D02*
D03*
D76*
X677539Y509941D02*
D03*
X657539D02*
D03*
X637539D02*
D03*
X697539D02*
D03*
X600689D02*
D03*
X581004D02*
D03*
M02*
