G04 Layer_Color=16711935*
%FSLAX25Y25*%
%MOIN*%
G70*
G01*
G75*
%ADD70C,0.00800*%
%ADD71C,0.20485*%
%ADD72R,0.06706X0.06706*%
%ADD73C,0.06706*%
%ADD74C,0.06800*%
%ADD75R,0.06706X0.06706*%
%ADD76C,0.12611*%
D70*
X540945Y526968D02*
D03*
Y509252D02*
D03*
D71*
X511122Y613386D02*
D03*
X726968D02*
D03*
X725291Y486224D02*
D03*
X510732D02*
D03*
X725291Y772043D02*
D03*
X511122Y772047D02*
D03*
D72*
X619488Y557657D02*
D03*
X706500Y781500D02*
D03*
X681500D02*
D03*
X537000D02*
D03*
D73*
X619488Y547657D02*
D03*
X557756Y603150D02*
D03*
X706500Y741500D02*
D03*
Y751500D02*
D03*
Y761500D02*
D03*
Y771500D02*
D03*
X681500Y761500D02*
D03*
Y691500D02*
D03*
Y701500D02*
D03*
Y711500D02*
D03*
Y721500D02*
D03*
Y731500D02*
D03*
Y741500D02*
D03*
Y751500D02*
D03*
Y771500D02*
D03*
X537000Y761500D02*
D03*
Y691500D02*
D03*
Y701500D02*
D03*
Y711500D02*
D03*
Y721500D02*
D03*
Y731500D02*
D03*
Y741500D02*
D03*
Y751500D02*
D03*
Y771500D02*
D03*
D74*
X605512Y642283D02*
D03*
Y622284D02*
D03*
D75*
X547756Y603150D02*
D03*
D76*
X677539Y509941D02*
D03*
X657539D02*
D03*
X637539D02*
D03*
X697539D02*
D03*
X600689D02*
D03*
X581004D02*
D03*
M02*
