G04 Layer_Physical_Order=1*
G04 Layer_Color=255*
%FSLAX25Y25*%
%MOIN*%
G70*
G01*
G75*
%ADD10R,0.09449X0.11024*%
%ADD11C,0.03937*%
%ADD12R,0.01968X0.03543*%
%ADD13R,0.03543X0.01968*%
%ADD14R,0.03543X0.03150*%
%ADD15R,0.02362X0.05118*%
%ADD16R,0.17362X0.16142*%
%ADD17R,0.05118X0.11614*%
%ADD18R,0.23622X0.07874*%
%ADD19R,0.05276X0.07087*%
%ADD20R,0.07874X0.03543*%
%ADD21R,0.24488X0.27008*%
%ADD22R,0.03937X0.07874*%
%ADD23R,0.07874X0.03937*%
%ADD24R,0.03740X0.03347*%
%ADD25R,0.05512X0.01772*%
%ADD26R,0.06000X0.03937*%
%ADD27R,0.11614X0.05118*%
%ADD28C,0.11811*%
%ADD29C,0.03937*%
%ADD30C,0.01968*%
%ADD31C,0.03543*%
%ADD32C,0.01181*%
%ADD33C,0.01575*%
%ADD34C,0.01000*%
%ADD35C,0.03858*%
%ADD36R,0.04035X0.33858*%
%ADD37R,0.05807X0.07087*%
%ADD38R,0.12500X0.15059*%
%ADD39R,1.34252X0.16831*%
%ADD40C,0.19685*%
%ADD41R,0.05905X0.05905*%
%ADD42C,0.05905*%
%ADD43C,0.06000*%
%ADD44R,0.05905X0.05905*%
%ADD45C,0.11811*%
%ADD46C,0.03543*%
G36*
X639473Y630370D02*
X639539Y629870D01*
X639939Y628904D01*
X640575Y628075D01*
X641404Y627439D01*
X642370Y627039D01*
X642870Y626973D01*
X643583Y626260D01*
X643583Y626260D01*
X644165Y625813D01*
X644843Y625532D01*
X645571Y625437D01*
X645571Y625437D01*
X667044D01*
X673931Y618550D01*
Y609776D01*
X673758D01*
Y606200D01*
X673732Y606004D01*
Y602490D01*
X673758Y602295D01*
Y602232D01*
X673766D01*
X673835Y601711D01*
X674135Y600985D01*
X674614Y600362D01*
X675270Y599706D01*
X675078Y599244D01*
X672718D01*
Y604252D01*
X672718Y604626D01*
X672718Y605000D01*
Y610720D01*
X671887D01*
X671854Y610966D01*
X671554Y611692D01*
X671075Y612315D01*
X669156Y614235D01*
X668533Y614713D01*
X667807Y615014D01*
X667028Y615116D01*
X665490D01*
X664895Y615573D01*
X663930Y615973D01*
X662894Y616109D01*
X661858Y615973D01*
X660892Y615573D01*
X660063Y614937D01*
X659427Y614108D01*
X659027Y613142D01*
X658891Y612106D01*
X659027Y611070D01*
X659427Y610105D01*
X660063Y609276D01*
X660098Y609249D01*
X659938Y608776D01*
X658839D01*
X660117Y607498D01*
X658702Y606084D01*
X657425Y607361D01*
Y603313D01*
X657425Y603232D01*
X657230Y602813D01*
X656365D01*
X656199Y602979D01*
Y606004D01*
X656173Y606200D01*
Y609776D01*
X656000D01*
Y614331D01*
X655905Y615058D01*
X655624Y615736D01*
X655177Y616319D01*
X655177Y616319D01*
X650401Y621095D01*
X649819Y621541D01*
X649141Y621822D01*
X648413Y621918D01*
X648413Y621918D01*
X638948D01*
X636276Y624590D01*
Y625600D01*
X636295Y625615D01*
X636931Y626443D01*
X637331Y627409D01*
X637467Y628445D01*
X637331Y629481D01*
X636931Y630446D01*
X636295Y631275D01*
X636276Y631290D01*
Y632914D01*
X636738Y633105D01*
X639473Y630370D01*
D02*
G37*
G36*
X638453Y680383D02*
X639281Y679830D01*
X640256Y679636D01*
X642291D01*
Y676740D01*
Y674181D01*
Y670069D01*
X641791Y669862D01*
X637716Y673937D01*
X637134Y674384D01*
X636456Y674664D01*
X635728Y674760D01*
X635728Y674760D01*
X628575D01*
Y674835D01*
X627575D01*
Y677740D01*
Y680299D01*
Y682858D01*
Y685640D01*
X633196D01*
X638453Y680383D01*
D02*
G37*
G36*
X584319Y709913D02*
X585277D01*
Y701345D01*
X582218Y698286D01*
X554471D01*
X545851Y706906D01*
X545967Y707204D01*
X546105Y707359D01*
X546811Y707266D01*
X551181D01*
X551377Y707291D01*
X554953D01*
Y708291D01*
X559622D01*
X559858Y708291D01*
X560122Y707901D01*
Y705926D01*
X562974Y708778D01*
X564388Y707364D01*
X561536Y704512D01*
X572322D01*
X569470Y707364D01*
X570177Y708071D01*
X569470Y708778D01*
X572322Y711630D01*
X560642D01*
X558581Y709569D01*
X557167Y710983D01*
X558444Y712260D01*
X554953D01*
Y713260D01*
X555359Y713486D01*
X557087D01*
X557282Y713512D01*
X560858D01*
Y715520D01*
X574736D01*
Y717787D01*
X584319D01*
Y709913D01*
D02*
G37*
G36*
X612041Y702202D02*
X612664Y701724D01*
X613390Y701423D01*
X614169Y701321D01*
X656234D01*
X662045Y695509D01*
X662668Y695031D01*
X663394Y694730D01*
X664173Y694628D01*
X674115D01*
X676590Y692153D01*
X676505Y691500D01*
X676675Y690207D01*
X677174Y689002D01*
X677968Y687968D01*
X679002Y687174D01*
X680207Y686675D01*
X681500Y686505D01*
X682793Y686675D01*
X683998Y687174D01*
X685032Y687968D01*
X685395Y688441D01*
X685895D01*
X686146Y688115D01*
X686975Y687478D01*
X687940Y687079D01*
X688976Y686942D01*
X689829Y687054D01*
X690063Y686581D01*
X688216Y684734D01*
X670701D01*
Y687492D01*
X651803D01*
Y687630D01*
X649900D01*
Y691339D01*
X649874Y691534D01*
Y695110D01*
X646298D01*
X646102Y695136D01*
X625234D01*
X624639Y695592D01*
X623674Y695992D01*
X622638Y696129D01*
X621602Y695992D01*
X620636Y695592D01*
X620042Y695136D01*
X610884D01*
Y702706D01*
X611346Y702897D01*
X612041Y702202D01*
D02*
G37*
G36*
X620063Y682858D02*
Y680299D01*
Y677740D01*
Y674835D01*
X619063D01*
Y672276D01*
Y666504D01*
Y661386D01*
Y658827D01*
Y656268D01*
Y651649D01*
X618563Y651442D01*
X618167Y651837D01*
Y661221D01*
X618065Y662000D01*
X617764Y662725D01*
X617286Y663349D01*
X615121Y665514D01*
X614497Y665993D01*
X613771Y666293D01*
X612992Y666396D01*
X609908D01*
X605182Y671122D01*
X605191Y671622D01*
X614153D01*
Y673426D01*
X614696Y673788D01*
X615976Y675068D01*
X616528Y675895D01*
X616722Y676870D01*
Y677370D01*
X617945D01*
Y683339D01*
X617945D01*
Y683591D01*
X617945D01*
Y685640D01*
X620063D01*
Y682858D01*
D02*
G37*
G36*
X624638Y630480D02*
X624864Y630074D01*
Y627953D01*
X624890Y627757D01*
Y624181D01*
X630653D01*
Y623425D01*
X630653Y623425D01*
X630749Y622697D01*
X631030Y622019D01*
X631477Y621437D01*
X635795Y617119D01*
X635795Y617119D01*
X636378Y616672D01*
X637056Y616391D01*
X637783Y616295D01*
X647249D01*
X650378Y613166D01*
Y609776D01*
X650205D01*
Y606200D01*
X650179Y606004D01*
Y601732D01*
X650281Y600953D01*
X650582Y600227D01*
X650953Y599744D01*
X650760Y599244D01*
X648457D01*
Y604500D01*
X648457D01*
Y604752D01*
X648457D01*
Y610720D01*
X644881D01*
X644685Y610746D01*
X639724D01*
X638945Y610644D01*
X638569Y610488D01*
X638484Y610499D01*
X637448Y610362D01*
X636483Y609963D01*
X635654Y609326D01*
X635018Y608497D01*
X634618Y607532D01*
X634481Y606496D01*
X634618Y605460D01*
X635018Y604495D01*
X635474Y603900D01*
Y602754D01*
X603917D01*
X603757Y603228D01*
X603815Y603272D01*
X604451Y604101D01*
X604851Y605066D01*
X604987Y606102D01*
X604851Y607138D01*
X604603Y607736D01*
X604937Y608236D01*
X612630D01*
Y618079D01*
X619323D01*
Y624825D01*
X619669Y625181D01*
X622224D01*
X620946Y626458D01*
X622361Y627873D01*
X623638Y626595D01*
Y630480D01*
X624638D01*
D02*
G37*
G36*
X510733Y784961D02*
X527231D01*
X527430Y784461D01*
X527410Y784441D01*
X524181D01*
Y778473D01*
X524181D01*
Y778221D01*
X524181D01*
Y772252D01*
X524943D01*
Y760425D01*
X524181D01*
Y759698D01*
X524013Y759569D01*
X522183Y757739D01*
X521704Y757115D01*
X521404Y756389D01*
X521301Y755610D01*
Y748425D01*
X521404Y747646D01*
X521704Y746920D01*
X522183Y746297D01*
X525533Y742946D01*
Y680118D01*
X525636Y679339D01*
X525937Y678613D01*
X526415Y677990D01*
X530942Y673462D01*
X531566Y672984D01*
X532292Y672683D01*
X533071Y672581D01*
X536634D01*
Y671622D01*
X546634D01*
Y679559D01*
X536634D01*
Y678601D01*
X534318D01*
X531553Y681365D01*
Y691097D01*
X532053Y691129D01*
X532175Y690207D01*
X532674Y689002D01*
X533468Y687968D01*
X534502Y687174D01*
X535707Y686675D01*
X537000Y686505D01*
X537653Y686590D01*
X540939Y683305D01*
X541562Y682826D01*
X542288Y682526D01*
X543067Y682423D01*
X595669D01*
X596448Y682526D01*
X597174Y682826D01*
X597798Y683305D01*
X598682Y684189D01*
X599153Y683958D01*
X599155Y683955D01*
Y669882D01*
X599258Y669103D01*
X599559Y668377D01*
X600037Y667754D01*
X606533Y661257D01*
X606786Y661063D01*
X606617Y660563D01*
X604102D01*
Y647112D01*
X602990Y646651D01*
X602778Y646488D01*
X600213D01*
Y658149D01*
X597361Y655297D01*
X596654Y656004D01*
X595947Y655297D01*
X593094Y658149D01*
Y646488D01*
X591701D01*
Y646226D01*
X590428D01*
X589976Y646343D01*
X589976Y646726D01*
Y650472D01*
X587912Y648407D01*
X586498Y649821D01*
X588562Y651886D01*
X581517D01*
X583581Y649821D01*
X582167Y648407D01*
X580102Y650472D01*
X580102Y646343D01*
X579664Y646193D01*
X579102D01*
Y638650D01*
X579664D01*
X580102Y638500D01*
X580102Y638150D01*
X580102Y632957D01*
X579664Y632807D01*
X579102D01*
Y626213D01*
X578905D01*
Y618669D01*
X581137D01*
Y613713D01*
X580382D01*
Y599375D01*
X576492D01*
Y611298D01*
X573640Y608446D01*
X572933Y609154D01*
X572226Y608446D01*
X569374Y611298D01*
Y599375D01*
X566910D01*
X562693Y603592D01*
X562581Y604443D01*
X562082Y605647D01*
X561288Y606682D01*
X560254Y607476D01*
X559049Y607975D01*
X557756Y608145D01*
X556463Y607975D01*
X555258Y607476D01*
X554224Y606682D01*
X553430Y605647D01*
X552931Y604443D01*
X552760Y603150D01*
X552931Y601857D01*
X553430Y600652D01*
X554224Y599617D01*
X555258Y598823D01*
X556463Y598324D01*
X557313Y598212D01*
X562645Y592881D01*
X562645Y592881D01*
X562929Y592662D01*
X563433Y592276D01*
X563970Y592054D01*
X564350Y591896D01*
X565335Y591767D01*
X583464D01*
X583465Y591767D01*
X583957Y591831D01*
X584449Y591896D01*
X585367Y592276D01*
X586155Y592881D01*
X587631Y594357D01*
X587631Y594357D01*
X588236Y595145D01*
X588616Y596063D01*
X588745Y597047D01*
Y598098D01*
X589500D01*
X589732Y597695D01*
Y596760D01*
X593308D01*
X593504Y596734D01*
X636850D01*
X637629Y596837D01*
X638355Y597137D01*
X638979Y597616D01*
X640413Y599050D01*
X640913Y598843D01*
Y598531D01*
X641347D01*
X641594Y598032D01*
X641317Y597671D01*
X640917Y596705D01*
X640781Y595669D01*
X640917Y594633D01*
X641317Y593668D01*
X641953Y592839D01*
X642782Y592203D01*
X643748Y591803D01*
X644783Y591667D01*
X645819Y591803D01*
X646785Y592203D01*
X647380Y592659D01*
X648197D01*
Y592095D01*
X655740D01*
Y595275D01*
X656071Y595638D01*
X663614D01*
Y602787D01*
X661527D01*
X661394Y603232D01*
X661394Y603287D01*
Y607982D01*
X661752Y608221D01*
X661894Y608235D01*
X662894Y608104D01*
X663930Y608240D01*
X664675Y608549D01*
X665175Y608267D01*
X665175Y604626D01*
X665175Y604252D01*
Y598531D01*
X665560D01*
X665806Y598032D01*
X665530Y597671D01*
X665130Y596705D01*
X664993Y595669D01*
X665130Y594633D01*
X665530Y593668D01*
X666166Y592839D01*
X666995Y592203D01*
X667960Y591803D01*
X668996Y591667D01*
X670032Y591803D01*
X670997Y592203D01*
X671220Y592374D01*
X671721Y592127D01*
Y592095D01*
X679264D01*
Y595275D01*
X679595Y595638D01*
X687138D01*
Y602787D01*
X685080D01*
X684947Y603232D01*
X684947Y603287D01*
Y608164D01*
X685447Y608498D01*
X686070Y608240D01*
X687106Y608104D01*
X688142Y608240D01*
X688937Y608569D01*
X689437Y608316D01*
X689437Y604626D01*
X689437Y604252D01*
Y598531D01*
X689773D01*
X690019Y598032D01*
X689742Y597671D01*
X689342Y596705D01*
X689206Y595669D01*
X689342Y594633D01*
X689742Y593668D01*
X690378Y592839D01*
X691207Y592203D01*
X692173Y591803D01*
X693209Y591667D01*
X694245Y591803D01*
X694774Y592022D01*
X695244Y592095D01*
X695244Y592095D01*
X695244Y592095D01*
X702787D01*
Y595275D01*
X703118Y595638D01*
X710661D01*
Y602787D01*
X708633D01*
X708500Y603232D01*
X708500Y603287D01*
Y607361D01*
X707223Y606084D01*
X706516Y606791D01*
X705808Y606084D01*
X704531Y607361D01*
Y603313D01*
X704531Y603232D01*
X704336Y602813D01*
X703609D01*
X703305Y603117D01*
Y606004D01*
X703279Y606200D01*
Y609776D01*
X703107D01*
Y617028D01*
X703107Y617028D01*
X703011Y617755D01*
X702730Y618433D01*
X702283Y619016D01*
X702283Y619016D01*
X682500Y638799D01*
X681917Y639246D01*
X681240Y639527D01*
X680512Y639622D01*
X680512Y639622D01*
X652156D01*
X652141Y639641D01*
X651312Y640277D01*
X650347Y640677D01*
X649311Y640814D01*
X649287Y640811D01*
X643067Y647031D01*
Y648591D01*
X651803D01*
Y651150D01*
Y653709D01*
Y656268D01*
Y658827D01*
Y661386D01*
Y663945D01*
Y667918D01*
X652303Y668328D01*
X652854Y668219D01*
X665453D01*
X666428Y668413D01*
X667255Y668965D01*
X668731Y670442D01*
X669284Y671269D01*
X669478Y672244D01*
Y675303D01*
X670701D01*
Y675738D01*
X692854D01*
X693830Y675932D01*
X694657Y676485D01*
X702196Y684024D01*
X702749Y684851D01*
X702943Y685827D01*
Y692035D01*
X703443Y692205D01*
X703863Y691658D01*
X704692Y691022D01*
X705657Y690622D01*
X706693Y690485D01*
X707729Y690622D01*
X708694Y691022D01*
X709523Y691658D01*
X710159Y692487D01*
X710559Y693452D01*
X710696Y694488D01*
X710559Y695524D01*
X710159Y696490D01*
X709523Y697319D01*
X708694Y697955D01*
X708128Y698189D01*
Y703512D01*
X708890D01*
X709221Y703149D01*
Y699968D01*
X716764D01*
Y700533D01*
X716929D01*
X717708Y700636D01*
X718434Y700937D01*
X719058Y701415D01*
X720606Y702963D01*
X721084Y703586D01*
X721385Y704312D01*
X721487Y705091D01*
Y723255D01*
X721385Y724034D01*
X721084Y724760D01*
X720606Y725384D01*
X719058Y726931D01*
X718719Y727192D01*
Y757913D01*
X718616Y758692D01*
X718315Y759418D01*
X717837Y760042D01*
X714250Y763628D01*
X713627Y764107D01*
X712901Y764407D01*
X712122Y764510D01*
X710433D01*
X710032Y765032D01*
X708998Y765826D01*
X708024Y766229D01*
Y766771D01*
X708998Y767174D01*
X710032Y767968D01*
X710826Y769002D01*
X711325Y770207D01*
X711495Y771500D01*
X711325Y772793D01*
X710826Y773998D01*
X710032Y775032D01*
X708998Y775826D01*
X708464Y776047D01*
X708564Y776547D01*
X711453D01*
Y784961D01*
X725291D01*
X725424Y784987D01*
X727318Y784838D01*
X729294Y784364D01*
X731173Y783586D01*
X732906Y782524D01*
X734452Y781204D01*
X735772Y779658D01*
X736834Y777924D01*
X737612Y776047D01*
X738086Y774070D01*
X738235Y772176D01*
X738209Y772043D01*
Y618476D01*
X737719Y618379D01*
X737553Y618779D01*
X736579Y620368D01*
X735368Y621786D01*
X733951Y622996D01*
X732362Y623970D01*
X730639Y624684D01*
X728827Y625119D01*
X726968Y625265D01*
X725110Y625119D01*
X723298Y624684D01*
X721575Y623970D01*
X719986Y622996D01*
X718569Y621786D01*
X717358Y620368D01*
X716384Y618779D01*
X715671Y617057D01*
X715236Y615244D01*
X715089Y613386D01*
X715236Y611527D01*
X715671Y609715D01*
X716384Y607993D01*
X717358Y606403D01*
X718569Y604986D01*
X719986Y603775D01*
X721575Y602801D01*
X723298Y602088D01*
X725110Y601653D01*
X726968Y601507D01*
X728827Y601653D01*
X730639Y602088D01*
X732362Y602801D01*
X733951Y603775D01*
X735368Y604986D01*
X736579Y606403D01*
X737553Y607993D01*
X737719Y608393D01*
X738209Y608295D01*
Y486216D01*
X738235Y486086D01*
X738086Y484198D01*
X737612Y482221D01*
X736834Y480343D01*
X735772Y478610D01*
X734452Y477064D01*
X732906Y475744D01*
X731173Y474682D01*
X729294Y473904D01*
X727318Y473429D01*
X725790Y473309D01*
X725291Y473307D01*
Y473307D01*
X725288Y473306D01*
X510732D01*
X510600Y473280D01*
X508706Y473429D01*
X506729Y473903D01*
X504851Y474681D01*
X503118Y475743D01*
X501572Y477064D01*
X500252Y478609D01*
X499190Y480342D01*
X498412Y482221D01*
X497937Y484197D01*
X497788Y486089D01*
X497815Y486221D01*
Y771556D01*
X497815Y772048D01*
X497815Y772048D01*
X497817Y772547D01*
X497937Y774075D01*
X498412Y776051D01*
X499190Y777929D01*
X500252Y779663D01*
X501572Y781209D01*
X503118Y782529D01*
X504851Y783591D01*
X506729Y784369D01*
X508706Y784843D01*
X510582Y784991D01*
X510733Y784961D01*
D02*
G37*
G36*
X591701Y618079D02*
X593094D01*
Y609236D01*
X592703Y608975D01*
X589500D01*
Y613713D01*
X588745D01*
Y618669D01*
X590779D01*
Y625231D01*
X591701D01*
Y618079D01*
D02*
G37*
G36*
X697484Y615863D02*
Y610328D01*
X697480Y610327D01*
X696980Y610670D01*
Y610720D01*
X696194D01*
X696116Y611310D01*
X695815Y612037D01*
X695337Y612660D01*
X693762Y614235D01*
X693139Y614713D01*
X692413Y615014D01*
X691634Y615116D01*
X689703D01*
X689108Y615573D01*
X688142Y615973D01*
X687106Y616109D01*
X686070Y615973D01*
X685105Y615573D01*
X684276Y614937D01*
X683640Y614108D01*
X683240Y613142D01*
X683104Y612106D01*
X683240Y611070D01*
X683640Y610105D01*
X684276Y609276D01*
X684311Y609249D01*
X684150Y608776D01*
X682393D01*
X683670Y607498D01*
X682255Y606084D01*
X680978Y607361D01*
Y603313D01*
X680978Y603232D01*
X680974Y603223D01*
X680373Y603116D01*
X679752Y603737D01*
Y606004D01*
X679726Y606200D01*
Y609776D01*
X679554D01*
Y619715D01*
X679458Y620442D01*
X679177Y621120D01*
X678730Y621703D01*
X678730Y621703D01*
X670197Y630236D01*
X669614Y630683D01*
X668936Y630964D01*
X668209Y631060D01*
X668209Y631060D01*
X647388D01*
X647272Y631942D01*
X646872Y632907D01*
X646605Y633255D01*
X646961Y633612D01*
X647310Y633345D01*
X648275Y632945D01*
X649311Y632808D01*
X650347Y632945D01*
X651312Y633345D01*
X652141Y633981D01*
X652156Y634000D01*
X679347D01*
X697484Y615863D01*
D02*
G37*
G36*
X560614Y782540D02*
X561891Y783817D01*
X563306Y782403D01*
X562028Y781126D01*
X565761D01*
Y780126D01*
X565362Y779884D01*
X558222D01*
X557627Y780340D01*
X556662Y780740D01*
X555919Y780838D01*
X553128Y783628D01*
X552505Y784107D01*
X551779Y784407D01*
X551372Y784461D01*
X551405Y784961D01*
X560614D01*
Y782540D01*
D02*
G37*
G36*
X604864Y721787D02*
X584382D01*
Y722581D01*
X585433D01*
X586212Y722683D01*
X586938Y722984D01*
X587562Y723462D01*
X591892Y727793D01*
X592371Y728416D01*
X592671Y729142D01*
X592774Y729921D01*
Y738329D01*
X604864D01*
Y721787D01*
D02*
G37*
G36*
X671128Y784461D02*
X670721Y784407D01*
X669995Y784107D01*
X669372Y783628D01*
X665627Y779884D01*
X643437D01*
Y780842D01*
X631563D01*
Y772905D01*
Y765031D01*
Y757158D01*
Y749284D01*
Y744349D01*
X592774D01*
Y757087D01*
Y779921D01*
X592671Y780700D01*
X592371Y781426D01*
X591892Y782050D01*
X589443Y784499D01*
X589634Y784961D01*
X671095D01*
X671128Y784461D01*
D02*
G37*
G36*
X631563Y733535D02*
Y725661D01*
X643437D01*
Y726620D01*
X656623D01*
X663872Y719372D01*
X664495Y718893D01*
X665221Y718593D01*
X666000Y718490D01*
X677567D01*
X677968Y717968D01*
X679002Y717174D01*
X679976Y716771D01*
Y716229D01*
X679002Y715826D01*
X677968Y715032D01*
X677567Y714510D01*
X667747D01*
X664278Y717979D01*
X663655Y718457D01*
X662929Y718758D01*
X662150Y718860D01*
X642437D01*
Y723310D01*
X640176Y721049D01*
X638761Y722463D01*
X641023Y724724D01*
X633977D01*
X636239Y722463D01*
X634824Y721049D01*
X632563Y723310D01*
Y718860D01*
X631626D01*
Y721787D01*
X610884D01*
Y738329D01*
X631563D01*
Y733535D01*
D02*
G37*
%LPC*%
G36*
X573736Y710216D02*
X571591Y708071D01*
X573736Y705926D01*
Y710216D01*
D02*
G37*
G36*
X651126Y692696D02*
Y689981D01*
X652403Y691258D01*
X653110Y690551D01*
X653817Y691258D01*
X655094Y689981D01*
Y692696D01*
X653817Y691419D01*
X653110Y692126D01*
X652403Y691419D01*
X651126Y692696D01*
D02*
G37*
G36*
X653110Y689137D02*
X652540Y688567D01*
X653680D01*
X653110Y689137D01*
D02*
G37*
G36*
X653680Y694110D02*
X652540D01*
X653110Y693540D01*
X653680Y694110D01*
D02*
G37*
G36*
X610532Y590691D02*
X609757Y590589D01*
X609260Y590383D01*
X609584Y590059D01*
X611480D01*
X611803Y590383D01*
X611306Y590589D01*
X610532Y590691D01*
D02*
G37*
G36*
X706890Y590909D02*
X705532Y589551D01*
X708247D01*
X706890Y590909D01*
D02*
G37*
G36*
X693209Y573589D02*
X692173Y573453D01*
X691207Y573053D01*
X690378Y572417D01*
X689742Y571588D01*
X689342Y570623D01*
X689206Y569587D01*
X689342Y568551D01*
X689581Y567974D01*
X689742Y567585D01*
X689805Y567499D01*
X690008Y567071D01*
X690008Y566740D01*
Y559858D01*
X686511Y559854D01*
X686158Y560207D01*
Y564794D01*
X684684Y563320D01*
X683976Y564027D01*
X683269Y563320D01*
X681795Y564794D01*
Y560271D01*
X681658Y560214D01*
X681157Y560548D01*
Y564794D01*
X679683Y563320D01*
X678976Y564027D01*
X678269Y563320D01*
X676795Y564794D01*
Y560265D01*
X676657Y560208D01*
X676158Y560542D01*
Y564794D01*
X674684Y563320D01*
X673269Y564734D01*
X674743Y566208D01*
X672157D01*
Y567188D01*
X672463Y567585D01*
X672862Y568551D01*
X672999Y569587D01*
X672862Y570623D01*
X672463Y571588D01*
X671826Y572417D01*
X670997Y573053D01*
X670032Y573453D01*
X668996Y573589D01*
X667960Y573453D01*
X666995Y573053D01*
X666166Y572417D01*
X665530Y571588D01*
X665130Y570623D01*
X664993Y569587D01*
X665130Y568551D01*
X665369Y567974D01*
X665530Y567585D01*
X665592Y567499D01*
X665795Y567071D01*
X665795Y566740D01*
Y559830D01*
X662299Y559826D01*
X661945Y560179D01*
Y564794D01*
X660471Y563320D01*
X659764Y564027D01*
X659057Y563320D01*
X657583Y564794D01*
Y560243D01*
X657445Y560186D01*
X656945Y560520D01*
Y564794D01*
X655471Y563320D01*
X654764Y564027D01*
X654057Y563320D01*
X652583Y564794D01*
Y560238D01*
X652445Y560181D01*
X651945Y560514D01*
Y564794D01*
X650471Y563320D01*
X649057Y564734D01*
X650531Y566208D01*
X647945D01*
Y567188D01*
X648250Y567585D01*
X648650Y568551D01*
X648786Y569587D01*
X648650Y570623D01*
X648250Y571588D01*
X647614Y572417D01*
X646785Y573053D01*
X645819Y573453D01*
X644783Y573589D01*
X643748Y573453D01*
X642782Y573053D01*
X641953Y572417D01*
X641317Y571588D01*
X640917Y570623D01*
X640781Y569587D01*
X640917Y568551D01*
X641317Y567585D01*
X641317Y567585D01*
X641380Y567499D01*
X641583Y567208D01*
Y558090D01*
X641583D01*
Y557020D01*
X641583D01*
Y551673D01*
X641563Y551575D01*
X641563Y531988D01*
X641563Y531988D01*
X641718Y531208D01*
X642160Y530546D01*
X649437Y523270D01*
Y509547D01*
X649592Y508767D01*
X649732Y508558D01*
X649748Y508391D01*
X650200Y506901D01*
X650934Y505528D01*
X651922Y504324D01*
X653126Y503336D01*
X654499Y502602D01*
X655990Y502150D01*
X657539Y501997D01*
X659089Y502150D01*
X660579Y502602D01*
X661953Y503336D01*
X663157Y504324D01*
X664144Y505528D01*
X664878Y506901D01*
X665331Y508391D01*
X665333Y508420D01*
X665565Y508767D01*
X665720Y509547D01*
Y527769D01*
X666220Y527921D01*
X666373Y527692D01*
X669614Y524451D01*
Y510131D01*
X669596Y509941D01*
X669614Y509751D01*
Y509547D01*
X669654Y509348D01*
X669748Y508391D01*
X670200Y506901D01*
X670934Y505528D01*
X671922Y504324D01*
X673126Y503336D01*
X674499Y502602D01*
X675990Y502150D01*
X677539Y501997D01*
X679089Y502150D01*
X680579Y502602D01*
X681953Y503336D01*
X683156Y504324D01*
X684144Y505528D01*
X684878Y506901D01*
X685330Y508391D01*
X685386Y508956D01*
X685504Y509547D01*
Y531734D01*
X686580Y532810D01*
X687022Y533472D01*
X687177Y534252D01*
Y550787D01*
X687157Y550885D01*
Y554921D01*
X690008D01*
Y552755D01*
X689988Y552658D01*
Y539621D01*
X689750Y539265D01*
X689595Y538484D01*
Y509646D01*
X689654Y509347D01*
X689748Y508391D01*
X690200Y506901D01*
X690934Y505528D01*
X691922Y504324D01*
X693126Y503336D01*
X694499Y502602D01*
X695990Y502150D01*
X697539Y501997D01*
X699089Y502150D01*
X700579Y502602D01*
X701953Y503336D01*
X703157Y504324D01*
X704144Y505528D01*
X704878Y506901D01*
X705331Y508391D01*
X705351Y508605D01*
X705526Y508865D01*
X705681Y509646D01*
Y530159D01*
X710792Y535271D01*
X711234Y535932D01*
X711390Y536713D01*
Y552658D01*
X711370Y552756D01*
Y557020D01*
X711024D01*
X711024Y559882D01*
X710724Y559881D01*
X710370Y560235D01*
Y564794D01*
X708896Y563320D01*
X708189Y564027D01*
X707482Y563320D01*
X706008Y564794D01*
Y560299D01*
X705870Y560242D01*
X705370Y560576D01*
Y564794D01*
X703896Y563320D01*
X703189Y564027D01*
X702482Y563320D01*
X701008Y564794D01*
Y560293D01*
X700870Y560236D01*
X700370Y560570D01*
Y564794D01*
X698896Y563320D01*
X697482Y564734D01*
X698956Y566208D01*
X696370D01*
Y567188D01*
X696675Y567585D01*
X697075Y568551D01*
X697211Y569587D01*
X697075Y570623D01*
X696675Y571588D01*
X696039Y572417D01*
X695210Y573053D01*
X694245Y573453D01*
X693209Y573589D01*
D02*
G37*
G36*
X709661Y593287D02*
X708501Y592126D01*
X709661Y590965D01*
Y593287D01*
D02*
G37*
G36*
X615535Y560196D02*
Y555119D01*
X618074Y557657D01*
X615535Y560196D01*
D02*
G37*
G36*
X622027Y561610D02*
X616950D01*
X619488Y559072D01*
X622027Y561610D01*
D02*
G37*
G36*
X662614Y593287D02*
X661454Y592126D01*
X662614Y590965D01*
Y593287D01*
D02*
G37*
G36*
X655531Y566208D02*
X653997D01*
X654764Y565441D01*
X655531Y566208D01*
D02*
G37*
G36*
X611693Y585121D02*
X611275Y584801D01*
X611306Y584805D01*
X611803Y585011D01*
X611693Y585121D01*
D02*
G37*
G36*
X679743Y566208D02*
X678210D01*
X678976Y565441D01*
X679743Y566208D01*
D02*
G37*
G36*
X659842Y590909D02*
X658485Y589551D01*
X661200D01*
X659842Y590909D01*
D02*
G37*
G36*
X613218Y588969D02*
X612992Y588743D01*
Y586650D01*
X613218Y586425D01*
X613424Y586922D01*
X613526Y587697D01*
X613424Y588472D01*
X613218Y588969D01*
D02*
G37*
G36*
X683366Y590909D02*
X682009Y589551D01*
X684724D01*
X683366Y590909D01*
D02*
G37*
G36*
X703956Y566208D02*
X702422D01*
X703189Y565441D01*
X703956Y566208D01*
D02*
G37*
G36*
X660531D02*
X658997D01*
X659764Y565441D01*
X660531Y566208D01*
D02*
G37*
G36*
X684743D02*
X683210D01*
X683976Y565441D01*
X684743Y566208D01*
D02*
G37*
G36*
X708956D02*
X707422D01*
X708189Y565441D01*
X708956Y566208D01*
D02*
G37*
G36*
X586548Y514071D02*
X582418Y509941D01*
X586548Y505811D01*
X586773Y506086D01*
X587415Y507285D01*
X587810Y508587D01*
X587943Y509941D01*
X587810Y511295D01*
X587415Y512596D01*
X586773Y513796D01*
X586548Y514071D01*
D02*
G37*
G36*
X540945Y515218D02*
X539781Y515103D01*
X538662Y514764D01*
X537631Y514212D01*
X536727Y513470D01*
X535985Y512566D01*
X535433Y511535D01*
X535094Y510416D01*
X534979Y509252D01*
X535094Y508088D01*
X535433Y506969D01*
X535985Y505938D01*
X536727Y505034D01*
X537631Y504292D01*
X538662Y503740D01*
X539781Y503401D01*
X540945Y503286D01*
X542109Y503401D01*
X543228Y503740D01*
X544259Y504292D01*
X545163Y505034D01*
X545905Y505938D01*
X546456Y506969D01*
X546796Y508088D01*
X546911Y509252D01*
X546796Y510416D01*
X546456Y511535D01*
X545905Y512566D01*
X545163Y513470D01*
X544259Y514212D01*
X543228Y514764D01*
X542109Y515103D01*
X540945Y515218D01*
D02*
G37*
G36*
X569110Y514350D02*
X564093Y509332D01*
X563878Y509547D01*
X562894D01*
X562679Y509332D01*
X562464Y509547D01*
X557661D01*
Y504154D01*
X562679Y509172D01*
X563386Y508464D01*
X564093Y509172D01*
X569110Y504154D01*
Y514350D01*
D02*
G37*
G36*
X575460Y514071D02*
X575234Y513796D01*
X574593Y512596D01*
X574198Y511295D01*
X574065Y509941D01*
X574198Y508587D01*
X574593Y507285D01*
X575234Y506086D01*
X575460Y505811D01*
X579590Y509941D01*
X575460Y514071D01*
D02*
G37*
G36*
X581004Y508527D02*
X576874Y504397D01*
X577149Y504172D01*
X578348Y503530D01*
X579650Y503135D01*
X581004Y503002D01*
X582358Y503135D01*
X583659Y503530D01*
X584859Y504172D01*
X585134Y504397D01*
X581004Y508527D01*
D02*
G37*
G36*
X725291Y498104D02*
X723433Y497957D01*
X721621Y497522D01*
X719898Y496809D01*
X718309Y495835D01*
X716891Y494624D01*
X715681Y493207D01*
X714707Y491617D01*
X713994Y489895D01*
X713558Y488083D01*
X713412Y486224D01*
X713558Y484366D01*
X713994Y482553D01*
X714707Y480831D01*
X715681Y479242D01*
X716891Y477825D01*
X718309Y476614D01*
X719898Y475640D01*
X721621Y474927D01*
X723433Y474492D01*
X725291Y474345D01*
X727150Y474492D01*
X728962Y474927D01*
X730684Y475640D01*
X732274Y476614D01*
X733691Y477825D01*
X734902Y479242D01*
X735876Y480831D01*
X736589Y482553D01*
X737024Y484366D01*
X737171Y486224D01*
X737024Y488083D01*
X736589Y489895D01*
X735876Y491617D01*
X734902Y493207D01*
X733691Y494624D01*
X732274Y495835D01*
X730684Y496809D01*
X728962Y497522D01*
X727150Y497957D01*
X725291Y498104D01*
D02*
G37*
G36*
X510732D02*
X508874Y497957D01*
X507061Y497522D01*
X505339Y496809D01*
X503750Y495835D01*
X502332Y494624D01*
X501122Y493207D01*
X500148Y491617D01*
X499435Y489895D01*
X498999Y488083D01*
X498853Y486224D01*
X498999Y484366D01*
X499435Y482553D01*
X500148Y480831D01*
X501122Y479242D01*
X502332Y477825D01*
X503750Y476614D01*
X505339Y475640D01*
X507061Y474927D01*
X508874Y474492D01*
X510732Y474345D01*
X512591Y474492D01*
X514403Y474927D01*
X516125Y475640D01*
X517715Y476614D01*
X519132Y477825D01*
X520343Y479242D01*
X521317Y480831D01*
X522030Y482553D01*
X522465Y484366D01*
X522611Y486224D01*
X522465Y488083D01*
X522030Y489895D01*
X521317Y491617D01*
X520343Y493207D01*
X519132Y494624D01*
X517715Y495835D01*
X516125Y496809D01*
X514403Y497522D01*
X512591Y497957D01*
X510732Y498104D01*
D02*
G37*
G36*
X563386Y507050D02*
X559076Y502740D01*
X567696D01*
X563386Y507050D01*
D02*
G37*
G36*
X619488Y552653D02*
X618195Y552483D01*
X616990Y551984D01*
X615956Y551190D01*
X615162Y550155D01*
X614663Y548950D01*
X614493Y547657D01*
X614663Y546365D01*
X615162Y545160D01*
X615956Y544125D01*
X616366Y543810D01*
Y541370D01*
X616366D01*
Y533827D01*
Y527823D01*
X616366D01*
Y517885D01*
X600689D01*
X599139Y517732D01*
X597649Y517280D01*
X596276Y516546D01*
X595072Y515558D01*
X594084Y514354D01*
X593350Y512981D01*
X592898Y511491D01*
X592745Y509941D01*
Y496625D01*
X542365D01*
X534899Y504092D01*
X534899Y504092D01*
X526546Y512444D01*
Y517520D01*
Y524902D01*
Y533169D01*
X526546Y533169D01*
X526394Y534719D01*
X525941Y536209D01*
X525228Y537543D01*
Y540779D01*
X520974D01*
X520054Y541059D01*
X518504Y541212D01*
X516954Y541059D01*
X516033Y540779D01*
X511779D01*
Y537458D01*
X511165Y536308D01*
X510713Y534818D01*
X510560Y533268D01*
X510659Y532268D01*
Y524902D01*
Y517520D01*
Y510251D01*
X510560Y509252D01*
X510713Y507702D01*
X511165Y506212D01*
X511779Y505062D01*
Y501740D01*
X514782D01*
X523664Y492857D01*
X523664Y492857D01*
X533458Y483064D01*
X533458Y483064D01*
X534661Y482076D01*
X536035Y481342D01*
X537525Y480890D01*
X539075Y480737D01*
X539075Y480737D01*
X596654D01*
X598203Y480890D01*
X599693Y481342D01*
X601067Y482076D01*
X602271Y483064D01*
X606306Y487099D01*
X607294Y488303D01*
X608028Y489677D01*
X608480Y491167D01*
X608633Y492717D01*
Y501997D01*
X637539D01*
X639089Y502150D01*
X640579Y502602D01*
X641953Y503336D01*
X643156Y504324D01*
X644144Y505528D01*
X644878Y506901D01*
X645330Y508391D01*
X645483Y509941D01*
X645330Y511491D01*
X644878Y512981D01*
X644144Y514354D01*
X643156Y515558D01*
X641953Y516546D01*
X640579Y517280D01*
X639089Y517732D01*
X637539Y517885D01*
X624480D01*
Y547631D01*
X624484Y547657D01*
X624480Y547684D01*
Y547835D01*
X624422Y548129D01*
X624313Y548950D01*
X623814Y550155D01*
X623021Y551190D01*
X621986Y551984D01*
X620781Y552483D01*
X619488Y552653D01*
D02*
G37*
G36*
X581004Y516880D02*
X579650Y516747D01*
X578348Y516352D01*
X577149Y515710D01*
X576874Y515485D01*
X581004Y511355D01*
X585134Y515485D01*
X584859Y515710D01*
X583659Y516352D01*
X582358Y516747D01*
X581004Y516880D01*
D02*
G37*
G36*
X613700Y540370D02*
X612560D01*
X613130Y539800D01*
X613700Y540370D01*
D02*
G37*
G36*
X611146Y538956D02*
Y534866D01*
X611146Y534827D01*
Y534366D01*
X611146Y534327D01*
Y530237D01*
X612423Y531514D01*
X613130Y530807D01*
X613837Y531514D01*
X615114Y530237D01*
Y534327D01*
X615114Y534366D01*
Y534827D01*
X615114Y534866D01*
Y538956D01*
X613837Y537679D01*
X613130Y538386D01*
X612423Y537679D01*
X611146Y538956D01*
D02*
G37*
G36*
X623441Y560196D02*
X620902Y557657D01*
X623441Y555119D01*
Y560196D01*
D02*
G37*
G36*
X619488Y556243D02*
X616950Y553705D01*
X622027D01*
X619488Y556243D01*
D02*
G37*
G36*
X613130Y529393D02*
X612560Y528823D01*
X613700D01*
X613130Y529393D01*
D02*
G37*
G36*
X540945Y532934D02*
X539781Y532820D01*
X538662Y532480D01*
X537631Y531929D01*
X536727Y531187D01*
X535985Y530283D01*
X535433Y529251D01*
X535094Y528132D01*
X534979Y526968D01*
X535094Y525805D01*
X535433Y524685D01*
X535985Y523654D01*
X536727Y522750D01*
X537631Y522008D01*
X538662Y521457D01*
X539781Y521117D01*
X540945Y521003D01*
X542109Y521117D01*
X543228Y521457D01*
X544259Y522008D01*
X545163Y522750D01*
X545905Y523654D01*
X546456Y524685D01*
X546796Y525805D01*
X546911Y526968D01*
X546796Y528132D01*
X546456Y529251D01*
X545905Y530283D01*
X545163Y531187D01*
X544259Y531929D01*
X543228Y532480D01*
X542109Y532820D01*
X540945Y532934D01*
D02*
G37*
G36*
X567696Y515764D02*
X564272D01*
Y512339D01*
X567696Y515764D01*
D02*
G37*
G36*
X569110Y530035D02*
X568178Y529103D01*
X569110Y528170D01*
Y530035D01*
D02*
G37*
G36*
X566763Y527689D02*
X565831Y526756D01*
X567696D01*
X566763Y527689D01*
D02*
G37*
G36*
X583823Y677145D02*
X582269Y675591D01*
X583823Y674036D01*
Y677145D01*
D02*
G37*
G36*
X575823Y677145D02*
Y674036D01*
X577377Y675591D01*
X575823Y677145D01*
D02*
G37*
G36*
X566965D02*
Y674036D01*
X568519Y675591D01*
X566965Y677145D01*
D02*
G37*
G36*
X574965Y677145D02*
X573410Y675591D01*
X574965Y674036D01*
Y677145D01*
D02*
G37*
G36*
X582409Y678559D02*
X577237D01*
X579498Y676298D01*
X578791Y675591D01*
X579498Y674883D01*
X577237Y672622D01*
X582409D01*
X580147Y674883D01*
X580854Y675591D01*
X580147Y676298D01*
X582409Y678559D01*
D02*
G37*
G36*
X561830Y650331D02*
X538170D01*
X550000Y638501D01*
X561830Y650331D01*
D02*
G37*
G36*
X563244Y648916D02*
X550707Y636379D01*
X550000Y637087D01*
X549293Y636379D01*
X536756Y648916D01*
Y622737D01*
X549293Y635274D01*
X550000Y634567D01*
X550707Y635274D01*
X563244Y622737D01*
Y648916D01*
D02*
G37*
G36*
X573550Y678559D02*
X568379D01*
X570640Y676298D01*
X569933Y675591D01*
X570640Y674884D01*
X568379Y672622D01*
X573550D01*
X571289Y674884D01*
X571996Y675591D01*
X571289Y676298D01*
X573550Y678559D01*
D02*
G37*
G36*
X598798Y659563D02*
X594509D01*
X596654Y657418D01*
X598798Y659563D01*
D02*
G37*
G36*
X511122Y783926D02*
X509264Y783780D01*
X507451Y783345D01*
X505729Y782632D01*
X504140Y781658D01*
X502722Y780447D01*
X501512Y779030D01*
X500538Y777440D01*
X499824Y775718D01*
X499389Y773906D01*
X499243Y772047D01*
X499389Y770189D01*
X499824Y768376D01*
X500538Y766654D01*
X501512Y765065D01*
X502722Y763647D01*
X504140Y762437D01*
X505729Y761463D01*
X507451Y760749D01*
X509264Y760314D01*
X511122Y760168D01*
X512980Y760314D01*
X514793Y760749D01*
X516515Y761463D01*
X518104Y762437D01*
X519522Y763647D01*
X520732Y765065D01*
X521706Y766654D01*
X522420Y768376D01*
X522855Y770189D01*
X523001Y772047D01*
X522855Y773906D01*
X522420Y775718D01*
X521706Y777440D01*
X520732Y779030D01*
X519522Y780447D01*
X518104Y781658D01*
X516515Y782632D01*
X514793Y783345D01*
X512980Y783780D01*
X511122Y783926D01*
D02*
G37*
G36*
X725291Y783922D02*
X723433Y783776D01*
X721621Y783341D01*
X719898Y782628D01*
X718309Y781654D01*
X716891Y780443D01*
X715681Y779026D01*
X714707Y777436D01*
X713994Y775714D01*
X713558Y773902D01*
X713412Y772043D01*
X713558Y770185D01*
X713994Y768372D01*
X714707Y766650D01*
X715681Y765061D01*
X716891Y763644D01*
X718309Y762433D01*
X719898Y761459D01*
X721621Y760746D01*
X723433Y760310D01*
X725291Y760164D01*
X727150Y760310D01*
X728962Y760746D01*
X730684Y761459D01*
X732274Y762433D01*
X733691Y763644D01*
X734902Y765061D01*
X735876Y766650D01*
X736589Y768372D01*
X737024Y770185D01*
X737171Y772043D01*
X737024Y773902D01*
X736589Y775714D01*
X735876Y777436D01*
X734902Y779026D01*
X733691Y780443D01*
X732274Y781654D01*
X730684Y782628D01*
X728962Y783341D01*
X727150Y783776D01*
X725291Y783922D01*
D02*
G37*
G36*
X657071Y593287D02*
Y590965D01*
X658231Y592126D01*
X657071Y593287D01*
D02*
G37*
G36*
X708247Y594701D02*
X705532D01*
X706890Y593343D01*
X708247Y594701D01*
D02*
G37*
G36*
X704118Y593287D02*
Y590965D01*
X705279Y592126D01*
X704118Y593287D01*
D02*
G37*
G36*
X680594Y593287D02*
Y590965D01*
X681755Y592126D01*
X680594Y593287D01*
D02*
G37*
G36*
X661200Y594701D02*
X658485D01*
X659842Y593343D01*
X661200Y594701D01*
D02*
G37*
G36*
X659842Y592323D02*
X659646Y592126D01*
X659842Y591929D01*
X660039Y592126D01*
X659842Y592323D01*
D02*
G37*
G36*
X686138Y593287D02*
X684977Y592126D01*
X686138Y590965D01*
Y593287D01*
D02*
G37*
G36*
X683366Y592323D02*
X683169Y592126D01*
X683366Y591929D01*
X683563Y592126D01*
X683366Y592323D01*
D02*
G37*
G36*
X706890Y592323D02*
X706693Y592126D01*
X706890Y591929D01*
X707087Y592126D01*
X706890Y592323D01*
D02*
G37*
G36*
X707086Y608776D02*
X705946D01*
X706516Y608206D01*
X707086Y608776D01*
D02*
G37*
G36*
X550294Y607102D02*
X545217D01*
X547756Y604564D01*
X550294Y607102D01*
D02*
G37*
G36*
X550000Y633153D02*
X538170Y621323D01*
X561830D01*
X550000Y633153D01*
D02*
G37*
G36*
X575078Y612713D02*
X570788D01*
X572933Y610568D01*
X575078Y612713D01*
D02*
G37*
G36*
X511122Y625265D02*
X509264Y625119D01*
X507451Y624684D01*
X505729Y623970D01*
X504140Y622996D01*
X502722Y621786D01*
X501512Y620368D01*
X500538Y618779D01*
X499824Y617057D01*
X499389Y615244D01*
X499243Y613386D01*
X499389Y611527D01*
X499824Y609715D01*
X500538Y607993D01*
X501512Y606403D01*
X502722Y604986D01*
X504140Y603775D01*
X505729Y602801D01*
X507451Y602088D01*
X509264Y601653D01*
X511122Y601507D01*
X512980Y601653D01*
X514793Y602088D01*
X516515Y602801D01*
X518104Y603775D01*
X519522Y604986D01*
X520732Y606403D01*
X521706Y607993D01*
X522420Y609715D01*
X522855Y611527D01*
X523001Y613386D01*
X522855Y615244D01*
X522420Y617057D01*
X521706Y618779D01*
X520732Y620368D01*
X519522Y621786D01*
X518104Y622996D01*
X516515Y623970D01*
X514793Y624684D01*
X512980Y625119D01*
X511122Y625265D01*
D02*
G37*
G36*
X547756Y601735D02*
X545217Y599197D01*
X550294D01*
X547756Y601735D01*
D02*
G37*
G36*
X684724Y594701D02*
X682009D01*
X683366Y593343D01*
X684724Y594701D01*
D02*
G37*
G36*
X551709Y605688D02*
X549170Y603150D01*
X551709Y600611D01*
Y605688D01*
D02*
G37*
G36*
X543803Y605688D02*
Y600611D01*
X546342Y603150D01*
X543803Y605688D01*
D02*
G37*
%LPD*%
G36*
X709350Y536713D02*
X703642Y531004D01*
Y509646D01*
X691634D01*
Y538484D01*
X692028Y538878D01*
Y552658D01*
X709350D01*
Y536713D01*
D02*
G37*
G36*
X685138Y534252D02*
X683465Y532579D01*
Y509547D01*
X671654D01*
Y525295D01*
X667815Y529134D01*
Y550787D01*
X685138D01*
Y534252D01*
D02*
G37*
G36*
X660925Y551575D02*
X660925Y531988D01*
X663681Y529232D01*
Y509547D01*
X651476D01*
Y524114D01*
X643602Y531988D01*
X643602Y551575D01*
X660925Y551575D01*
D02*
G37*
%LPC*%
G36*
X646728Y723960D02*
Y722820D01*
X647298Y723390D01*
X646728Y723960D01*
D02*
G37*
G36*
X652272Y723960D02*
X651702Y723390D01*
X652272Y722820D01*
Y723960D01*
D02*
G37*
G36*
X650857Y725374D02*
X648143D01*
X649420Y724097D01*
X648713Y723390D01*
X649420Y722683D01*
X648143Y721406D01*
X650857D01*
X649580Y722683D01*
X650287Y723390D01*
X649580Y724097D01*
X650857Y725374D01*
D02*
G37*
%LPD*%
D10*
X518504Y533268D02*
D03*
X563386D02*
D03*
Y509252D02*
D03*
X518504D02*
D03*
D11*
X610532Y587697D02*
D03*
X649311Y636811D02*
D03*
X643405Y630905D02*
D03*
X633465Y628445D02*
D03*
X622638Y692126D02*
D03*
X600984Y606102D02*
D03*
X711024Y677165D02*
D03*
X676772Y670669D02*
D03*
X504528Y517913D02*
D03*
Y540354D02*
D03*
X655217Y720866D02*
D03*
X679626Y627559D02*
D03*
X599902Y543701D02*
D03*
X549213Y517913D02*
D03*
X531693D02*
D03*
X657972Y650492D02*
D03*
X623425Y610827D02*
D03*
X566240Y647736D02*
D03*
X566634Y621161D02*
D03*
X528839Y602264D02*
D03*
X728051Y693307D02*
D03*
X729331Y751181D02*
D03*
X676772Y652559D02*
D03*
X731988Y647342D02*
D03*
X514272Y660236D02*
D03*
X595472Y751575D02*
D03*
X608268Y751772D02*
D03*
X622638D02*
D03*
X619095Y698425D02*
D03*
X635335D02*
D03*
X518602Y517520D02*
D03*
Y524902D02*
D03*
X540256Y492323D02*
D03*
X600984Y500000D02*
D03*
X590256Y488681D02*
D03*
X567323D02*
D03*
X529035Y498228D02*
D03*
X563583Y520669D02*
D03*
X627067Y622146D02*
D03*
X657480Y696654D02*
D03*
X556102Y675886D02*
D03*
X593996Y674803D02*
D03*
X635039Y677461D02*
D03*
X653937Y783858D02*
D03*
X636221Y783661D02*
D03*
X622638Y783268D02*
D03*
X608268D02*
D03*
X595472Y783071D02*
D03*
X512402Y701673D02*
D03*
X511811Y745669D02*
D03*
X597146Y726476D02*
D03*
X627559Y725492D02*
D03*
X638484Y606496D02*
D03*
X662894Y612106D02*
D03*
X687106D02*
D03*
X591339Y611811D02*
D03*
X591437Y615846D02*
D03*
X693209Y595669D02*
D03*
X668996D02*
D03*
X644783D02*
D03*
X693209Y569587D02*
D03*
X668996D02*
D03*
X644783D02*
D03*
X555626Y776874D02*
D03*
X706693Y694488D02*
D03*
X688976Y690945D02*
D03*
X655118Y675197D02*
D03*
X557874Y784252D02*
D03*
X575984Y708268D02*
D03*
D12*
X621654Y634252D02*
D03*
X627874D02*
D03*
X659409Y606004D02*
D03*
X653189D02*
D03*
X619350Y537598D02*
D03*
X613130D02*
D03*
X619350Y531595D02*
D03*
X613130D02*
D03*
X706516Y606004D02*
D03*
X700295D02*
D03*
X682963D02*
D03*
X676742D02*
D03*
X627874Y627953D02*
D03*
X621654D02*
D03*
X621693Y640256D02*
D03*
X627913D02*
D03*
X709488Y724803D02*
D03*
X715709D02*
D03*
X715709Y717717D02*
D03*
X709488D02*
D03*
X646890Y691339D02*
D03*
X653110D02*
D03*
X696610Y781500D02*
D03*
X690390D02*
D03*
X696610Y771500D02*
D03*
X690390D02*
D03*
D13*
X693209Y601516D02*
D03*
Y607736D02*
D03*
X668947Y601516D02*
D03*
Y607736D02*
D03*
X644685Y601516D02*
D03*
Y607736D02*
D03*
X593504Y605965D02*
D03*
Y599744D02*
D03*
X666929Y678287D02*
D03*
Y684508D02*
D03*
X655118Y678287D02*
D03*
Y684508D02*
D03*
X661024Y678287D02*
D03*
Y684508D02*
D03*
X527953Y751221D02*
D03*
Y757441D02*
D03*
Y775236D02*
D03*
Y781457D02*
D03*
X563386Y746496D02*
D03*
Y752716D02*
D03*
X614173Y680354D02*
D03*
Y686575D02*
D03*
X569533Y783110D02*
D03*
Y776890D02*
D03*
X563386Y756390D02*
D03*
Y762610D02*
D03*
Y776890D02*
D03*
Y783110D02*
D03*
X649500Y723390D02*
D03*
Y729610D02*
D03*
X655500Y739890D02*
D03*
Y746110D02*
D03*
X649500Y742610D02*
D03*
Y736390D02*
D03*
X551181Y710276D02*
D03*
Y716496D02*
D03*
X557087D02*
D03*
Y710276D02*
D03*
D14*
X659842Y592126D02*
D03*
Y599213D02*
D03*
X651968Y595669D02*
D03*
X683366Y592126D02*
D03*
Y599213D02*
D03*
X675492Y595669D02*
D03*
X706890Y592126D02*
D03*
Y599213D02*
D03*
X699016Y595669D02*
D03*
X712992Y703543D02*
D03*
Y710630D02*
D03*
X705118Y707087D02*
D03*
X704331Y717717D02*
D03*
Y724803D02*
D03*
X696457Y721260D02*
D03*
D15*
X693189Y562649D02*
D03*
X698189D02*
D03*
X703189D02*
D03*
X708189D02*
D03*
X668976D02*
D03*
X673976D02*
D03*
X678976D02*
D03*
X683976D02*
D03*
X644764D02*
D03*
X649764D02*
D03*
X654764D02*
D03*
X659764D02*
D03*
D16*
X700689Y546949D02*
D03*
X676476D02*
D03*
X652264D02*
D03*
D17*
X608661Y652756D02*
D03*
X596654D02*
D03*
X584941Y605905D02*
D03*
X572933D02*
D03*
D18*
X605512Y640551D02*
D03*
Y624016D02*
D03*
D19*
X607992Y613779D02*
D03*
X596732D02*
D03*
D20*
X585039Y649114D02*
D03*
Y642421D02*
D03*
Y635728D02*
D03*
Y629035D02*
D03*
X584842Y622441D02*
D03*
D21*
X550000Y635827D02*
D03*
D22*
X588287Y715850D02*
D03*
X596161D02*
D03*
X604035D02*
D03*
X611909D02*
D03*
X619783D02*
D03*
X627658D02*
D03*
D23*
X637500Y721756D02*
D03*
X578445Y776874D02*
D03*
Y769000D02*
D03*
Y761126D02*
D03*
Y721756D02*
D03*
Y729630D02*
D03*
Y737504D02*
D03*
Y745378D02*
D03*
Y753252D02*
D03*
X637500Y729630D02*
D03*
Y737504D02*
D03*
Y745378D02*
D03*
Y753252D02*
D03*
Y761126D02*
D03*
Y769000D02*
D03*
Y776874D02*
D03*
D24*
X568898Y745472D02*
D03*
Y751378D02*
D03*
D25*
X623819Y684744D02*
D03*
Y682185D02*
D03*
Y679626D02*
D03*
Y677067D02*
D03*
Y674508D02*
D03*
Y671949D02*
D03*
Y669390D02*
D03*
Y666831D02*
D03*
Y664272D02*
D03*
Y661713D02*
D03*
Y659154D02*
D03*
Y656595D02*
D03*
Y654035D02*
D03*
Y651476D02*
D03*
X647047Y684744D02*
D03*
Y682185D02*
D03*
Y679626D02*
D03*
Y677067D02*
D03*
Y674508D02*
D03*
Y671949D02*
D03*
Y669390D02*
D03*
Y666831D02*
D03*
Y664272D02*
D03*
Y661713D02*
D03*
Y659154D02*
D03*
Y656595D02*
D03*
Y654035D02*
D03*
Y651476D02*
D03*
D26*
X609154Y675591D02*
D03*
X579823D02*
D03*
X541634D02*
D03*
X570965D02*
D03*
D27*
X566929Y720079D02*
D03*
Y708071D02*
D03*
D28*
X581004Y509941D02*
Y537598D01*
X563386Y509252D02*
Y533268D01*
X581004Y537598D02*
Y581201D01*
X600689Y492717D02*
Y509941D01*
X518504Y509252D02*
X539075Y488681D01*
X567323D01*
X518602Y517520D02*
Y524902D01*
Y509350D02*
Y517520D01*
Y524902D02*
Y533169D01*
X518504Y533268D02*
X518602Y533169D01*
X518504Y509252D02*
X518602Y509350D01*
X600689Y509941D02*
X618898D01*
X590256Y488681D02*
X596654D01*
X567323D02*
X590256D01*
X618898Y509941D02*
X637539D01*
X596654Y488681D02*
X600689Y492717D01*
X563386Y509252D02*
X564075Y509941D01*
X581004D01*
D29*
X580610Y537598D02*
X581004D01*
X619193Y547362D02*
X619350Y547520D01*
X581004Y537598D02*
X613130D01*
Y531595D02*
Y537598D01*
D30*
X564961Y707480D02*
X566929Y709449D01*
X568110Y708268D01*
X555626Y776874D02*
X578445D01*
X593504Y599744D02*
X636850D01*
X635039Y677461D02*
X637992Y674508D01*
X621654Y623327D02*
Y627953D01*
Y623327D02*
X622835Y622146D01*
X627067D01*
X627559Y725492D02*
X631295Y721756D01*
X637500D01*
X533071Y675591D02*
X541634D01*
X528543Y680118D02*
X533071Y675591D01*
X528543Y680118D02*
Y744193D01*
X524311Y748425D02*
X528543Y744193D01*
X524311Y748425D02*
Y755610D01*
X526142Y757441D01*
X527953D01*
X536721Y751221D02*
X537000Y751500D01*
X527953Y751221D02*
X536721D01*
X527953Y757441D02*
Y775236D01*
X536957Y781457D02*
X537000Y781500D01*
X527953Y781457D02*
X536957D01*
X638484Y601378D02*
Y606496D01*
X636850Y599744D02*
X638484Y601378D01*
Y606496D02*
X639724Y607736D01*
X644685D01*
X662894Y612106D02*
X667028D01*
X668947Y610187D01*
Y607736D02*
Y610187D01*
X687106Y612106D02*
X691634D01*
X693209Y610532D01*
Y607736D02*
Y610532D01*
X622638Y692126D02*
X646102D01*
X607874D02*
X622638D01*
X621693Y640256D02*
Y644055D01*
X615158Y650591D02*
X621693Y644055D01*
X615158Y650591D02*
Y661221D01*
X612992Y663386D02*
X615158Y661221D01*
X608661Y663386D02*
X612992D01*
X602165Y669882D02*
X608661Y663386D01*
X602165Y669882D02*
Y683957D01*
X607874Y689665D01*
Y692126D01*
X627874Y634252D02*
Y640197D01*
Y627953D02*
Y634252D01*
X600846Y605965D02*
X600984Y606102D01*
X593504Y605965D02*
X600846D01*
X584941Y605905D02*
X585000Y605965D01*
X593504D01*
X543067Y685433D02*
X595669D01*
X537000Y691500D02*
X543067Y685433D01*
X595669D02*
X604035Y693799D01*
X663779Y593602D02*
Y604528D01*
X662303Y592126D02*
X663779Y593602D01*
X659842Y592126D02*
X662303D01*
X662303Y606004D02*
X663779Y604528D01*
X659409Y606004D02*
X662303D01*
X659842Y588091D02*
Y592126D01*
X709055Y606004D02*
X710925Y604134D01*
Y593799D02*
Y604134D01*
X709252Y592126D02*
X710925Y593799D01*
X687303Y593996D02*
Y604134D01*
X685433Y606004D02*
X687303Y604134D01*
X682963Y606004D02*
X685433D01*
X706516D02*
X709055D01*
X706890Y592126D02*
X709252D01*
X706890Y588681D02*
Y592126D01*
X685433Y592126D02*
X687303Y593996D01*
X683366Y592126D02*
X685433D01*
X683366Y587894D02*
Y592126D01*
X659252Y599803D02*
X659842Y599213D01*
X655118Y599803D02*
X659252D01*
X653189Y601732D02*
X655118Y599803D01*
X653189Y601732D02*
Y606004D01*
X644685Y601516D02*
X644783Y601417D01*
Y595669D02*
Y601417D01*
X668947Y601516D02*
X668996Y601467D01*
Y595669D02*
Y601467D01*
X693209Y595669D02*
Y601516D01*
X706299Y599803D02*
X706890Y599213D01*
X702362Y599803D02*
X706299D01*
X700295Y601870D02*
X702362Y599803D01*
X700295Y601870D02*
Y606004D01*
X682776Y599803D02*
X683366Y599213D01*
X679429Y599803D02*
X682776D01*
X676742Y602490D02*
X679429Y599803D01*
X676742Y602490D02*
Y606004D01*
X644783Y595669D02*
X651968D01*
X668996D02*
X675492D01*
X699016D02*
X699016Y595669D01*
X693209Y595669D02*
X699016D01*
X693189Y569567D02*
X693209Y569587D01*
X693189Y562649D02*
Y569567D01*
X668976Y569567D02*
X668996Y569587D01*
X668976Y562649D02*
Y569567D01*
X644764Y569567D02*
X644783Y569587D01*
X644764Y562649D02*
Y569567D01*
X646102Y692126D02*
X646890Y691339D01*
X607874Y692126D02*
Y741339D01*
X646890Y685013D02*
Y691339D01*
X607874Y741339D02*
X644095D01*
X589764D02*
X607874D01*
X646890Y685013D02*
X647047Y684855D01*
X589764Y741339D02*
Y757087D01*
Y729921D02*
Y741339D01*
X578445Y742618D02*
Y745378D01*
X577327Y741500D02*
X578445Y742618D01*
X537000Y741500D02*
X577327D01*
X644095Y741339D02*
X645366Y742610D01*
X649500D01*
X622000Y708000D02*
X659500D01*
X614169Y704331D02*
X657480D01*
X705118Y696063D02*
X706693Y694488D01*
X705118Y696063D02*
Y707087D01*
X675362Y697638D02*
X681500Y691500D01*
X664173Y697638D02*
X675362D01*
X657480Y704331D02*
X664173Y697638D01*
X611909Y706591D02*
X614169Y704331D01*
X649500Y742610D02*
X652779D01*
X655500Y739890D01*
X647866Y721756D02*
X649500Y723390D01*
X589764Y757087D02*
Y779921D01*
X589682Y757005D02*
X589764Y757087D01*
X563386Y756390D02*
Y757005D01*
X569533Y783110D02*
X586575D01*
X589764Y779921D01*
X585433Y725591D02*
X589764Y729921D01*
X550394Y725591D02*
X585433D01*
X706500Y761500D02*
X712122D01*
X715709Y757913D01*
Y724803D02*
Y757913D01*
X706500Y751500D02*
X710311D01*
X712598Y749213D01*
Y718504D02*
Y749213D01*
X711811Y717717D02*
X712598Y718504D01*
X709488Y717717D02*
X711811D01*
X715709Y724803D02*
X716929D01*
X718477Y723255D01*
Y705091D02*
Y723255D01*
X712992Y703543D02*
X716929D01*
X718477Y705091D01*
X715709Y711378D02*
Y717717D01*
X714961Y710630D02*
X715709Y711378D01*
X712992Y710630D02*
X714961D01*
X704331Y717717D02*
X709488D01*
X704331Y724803D02*
X709488D01*
X562244Y784252D02*
X563386Y783110D01*
X557874Y784252D02*
X562244D01*
X568110Y708268D02*
X575984D01*
X545669Y720866D02*
X550394Y725591D01*
X545669Y711417D02*
Y720866D01*
Y711417D02*
X546811Y710276D01*
X551181D01*
X537000Y721500D02*
X545130Y729630D01*
X537000Y731500D02*
X543004Y737504D01*
X558661Y707480D02*
X564961D01*
X557087Y709055D02*
X558661Y707480D01*
X557087Y709055D02*
Y710276D01*
Y720079D02*
X558764Y721756D01*
X557087Y716496D02*
Y720079D01*
X551181Y716496D02*
X557087D01*
X566929Y721457D02*
X567228Y721756D01*
X578445D01*
X588287Y700098D02*
Y715850D01*
X583465Y695276D02*
X588287Y700098D01*
X553224Y695276D02*
X583465D01*
X596161Y696949D02*
Y715850D01*
X588976Y689764D02*
X596161Y696949D01*
X548736Y689764D02*
X588976D01*
X604035Y693799D02*
Y715850D01*
X537000Y711500D02*
X553224Y695276D01*
X537000Y701500D02*
X548736Y689764D01*
X563386Y752716D02*
Y756390D01*
Y746496D02*
X564409Y745472D01*
X568898D01*
X537000Y751500D02*
X543382D01*
X545276Y749606D01*
X567126D01*
X568898Y751378D01*
X570772Y753252D01*
X578445D01*
X537000Y751500D02*
X537764Y752264D01*
X577457D02*
X578445Y753252D01*
X577465Y762106D02*
X578445Y761126D01*
X537000Y761500D02*
X537606Y762106D01*
X551000Y781500D02*
X555626Y776874D01*
X537000Y781500D02*
X551000D01*
X637500Y745378D02*
X638122Y746000D01*
X662000Y736500D02*
X667000Y731500D01*
X637500Y737504D02*
X638504Y736500D01*
X696610Y781500D02*
X706500D01*
X696610Y771500D02*
X706500D01*
X681500Y781500D02*
X690390D01*
X671500D02*
X681500D01*
X666874Y776874D02*
X671500Y781500D01*
X681500Y771500D02*
X690390D01*
X671000D02*
X681500D01*
X668500Y769000D02*
X671000Y771500D01*
X681126Y761126D02*
X681500Y761500D01*
X667500Y751500D02*
X681500D01*
X665748Y753252D02*
X667500Y751500D01*
Y741500D02*
X681500D01*
X667000Y731500D02*
X681500D01*
X666000Y721500D02*
X681500D01*
X611909Y706591D02*
Y715850D01*
X666000Y701500D02*
X681500D01*
X659500Y708000D02*
X666000Y701500D01*
X619783Y710217D02*
X622000Y708000D01*
X619783Y710217D02*
Y715850D01*
X666500Y711500D02*
X681500D01*
X662150Y715850D02*
X666500Y711500D01*
X545130Y729630D02*
X578445D01*
X543004Y737504D02*
X578445D01*
X537000Y771500D02*
X554500D01*
X557000Y769000D01*
X578445D01*
X637500D02*
X668500D01*
X637500Y753252D02*
X665748D01*
X657870Y729630D02*
X666000Y721500D01*
X637500Y729630D02*
X657870D01*
X558764Y721756D02*
X567228D01*
X638504Y736500D02*
X662000D01*
X627658Y715850D02*
X662150D01*
X637500Y776874D02*
X666874D01*
X637500Y761126D02*
X681126D01*
X537606Y762106D02*
X577465D01*
X663000Y746000D02*
X667500Y741500D01*
X638122Y746000D02*
X663000D01*
X637500Y721756D02*
X647866D01*
X563386Y757005D02*
X589682D01*
D31*
X572539Y635728D02*
Y646850D01*
X572638Y606201D02*
Y635630D01*
X572539Y646850D02*
X574803Y649114D01*
X613543Y634252D02*
X621654D01*
X572638Y606201D02*
X572933Y605905D01*
X584941Y597047D02*
Y605905D01*
X583465Y595571D02*
X584941Y597047D01*
X565335Y595571D02*
X583465D01*
X557756Y603150D02*
X565335Y595571D01*
X584842Y622441D02*
X584941Y622342D01*
Y605905D02*
Y622342D01*
X574803Y649114D02*
X585039D01*
X572539Y635728D02*
X585039D01*
X550098D02*
X572539D01*
X550000Y635827D02*
X550098Y635728D01*
X547756Y633583D02*
X550000Y635827D01*
X547756Y603150D02*
Y633583D01*
X608661Y643701D02*
Y652756D01*
X605374Y642421D02*
X605512Y642283D01*
X585039Y642421D02*
X605374D01*
X585039Y629035D02*
X598760D01*
X605512Y622284D01*
Y642283D02*
X606378Y641417D01*
X613543Y634252D01*
X605512Y640551D02*
X606378Y641417D01*
X608661Y643701D01*
D32*
X619350Y547520D02*
X619488Y547657D01*
X619350Y537598D02*
Y547520D01*
Y531595D02*
Y537598D01*
Y510394D02*
Y531595D01*
X618898Y509941D02*
X619350Y510394D01*
D33*
X680512Y636811D02*
X700295Y617028D01*
X637697Y636122D02*
X645571Y628248D01*
X668209D02*
X676742Y619715D01*
X653189Y606004D02*
Y614331D01*
X648413Y619106D02*
X653189Y614331D01*
X637783Y619106D02*
X648413D01*
X633465Y623425D02*
Y628445D01*
Y623425D02*
X637783Y619106D01*
X649311Y636811D02*
X680512D01*
X640256Y645866D02*
X649311Y636811D01*
X645571Y628248D02*
X668209D01*
X632874Y679626D02*
X635039Y677461D01*
X630315Y682185D02*
X632874Y679626D01*
X627756Y684744D02*
X630315Y682185D01*
X623819D02*
X630315D01*
X623819Y679626D02*
X632874D01*
X632087Y674508D02*
X634646Y677067D01*
X635039Y677461D01*
X623819Y677067D02*
X634646D01*
X623819Y674508D02*
X632087D01*
X623819Y684744D02*
X627756D01*
X637992Y674508D02*
X647047D01*
X632972Y669390D02*
X637697Y664665D01*
Y636122D02*
Y664665D01*
X633465Y628445D02*
Y663681D01*
X676742Y606004D02*
Y619715D01*
X640256Y645866D02*
Y667421D01*
X618602Y674508D02*
Y677067D01*
Y652756D02*
Y674508D01*
X623819D01*
X618602Y677067D02*
Y679626D01*
Y677067D02*
X618602Y677067D01*
X623819D01*
X618602Y679626D02*
Y682283D01*
Y679626D02*
X623819D01*
X618602Y682283D02*
Y684252D01*
Y682283D02*
X618701Y682185D01*
X623819D01*
X619095Y684744D02*
X623819D01*
X618602Y684252D02*
X619095Y684744D01*
X618602Y652756D02*
X619882Y651476D01*
X623819D01*
X700295Y606004D02*
Y617028D01*
X635728Y671949D02*
X640256Y667421D01*
X623819Y671949D02*
X635728D01*
X623819Y669390D02*
X632972D01*
X630315Y666831D02*
X633465Y663681D01*
X623819Y666831D02*
X630315D01*
D34*
X665453Y670768D02*
X666929Y672244D01*
X652854Y670768D02*
X665453D01*
X651673Y671949D02*
X652854Y670768D01*
X647047Y671949D02*
X651673D01*
X647047D02*
X647068Y671928D01*
X614173Y676870D02*
Y680354D01*
X612894Y675591D02*
X614173Y676870D01*
X609154Y675591D02*
X612894D01*
X614173Y686575D02*
X615787Y688189D01*
X634252D01*
X640256Y682185D01*
X647047D01*
X700394Y685827D02*
Y745669D01*
X692854Y678287D02*
X700394Y685827D01*
X696457Y721260D02*
Y737008D01*
Y689370D02*
Y721260D01*
X689272Y682185D02*
X696457Y689370D01*
X681500Y751500D02*
X694563D01*
X700394Y745669D01*
X655118Y678287D02*
X655118Y678287D01*
X655118Y675197D02*
Y678287D01*
X684642Y731500D02*
X688976Y727165D01*
Y690945D02*
Y727165D01*
X666929Y672244D02*
Y678287D01*
X692854D01*
X661024Y682185D02*
X689272D01*
X647047D02*
X661024D01*
Y679075D02*
Y682185D01*
X651083Y679626D02*
X651634Y679075D01*
X647047Y679626D02*
X651083D01*
X647047Y684744D02*
X647146Y684646D01*
X681500Y731500D02*
X684642D01*
X646949Y679528D02*
X647047Y679626D01*
X691965Y741500D02*
X696457Y737008D01*
X681500Y741500D02*
X691965D01*
X651634Y679075D02*
X655118D01*
X647146Y684646D02*
X666280D01*
D35*
X607992Y625118D02*
X608563Y625689D01*
X607992Y613779D02*
Y625118D01*
D36*
X620423Y530905D02*
D03*
D37*
X593061Y613779D02*
D03*
D38*
X654774Y567569D02*
D03*
X678986D02*
D03*
X703199D02*
D03*
D39*
X642224Y581644D02*
D03*
D40*
X511122Y613386D02*
D03*
X726968D02*
D03*
X725291Y486224D02*
D03*
X510732D02*
D03*
X725291Y772043D02*
D03*
X511122Y772047D02*
D03*
D41*
X619488Y557657D02*
D03*
X706500Y781500D02*
D03*
X681500D02*
D03*
X537000D02*
D03*
D42*
X619488Y547657D02*
D03*
X557756Y603150D02*
D03*
X706500Y741500D02*
D03*
Y751500D02*
D03*
Y761500D02*
D03*
Y771500D02*
D03*
X681500Y761500D02*
D03*
Y691500D02*
D03*
Y701500D02*
D03*
Y711500D02*
D03*
Y721500D02*
D03*
Y731500D02*
D03*
Y741500D02*
D03*
Y751500D02*
D03*
Y771500D02*
D03*
X537000Y761500D02*
D03*
Y691500D02*
D03*
Y701500D02*
D03*
Y711500D02*
D03*
Y721500D02*
D03*
Y731500D02*
D03*
Y741500D02*
D03*
Y751500D02*
D03*
Y771500D02*
D03*
D43*
X605512Y642283D02*
D03*
Y622284D02*
D03*
D44*
X547756Y603150D02*
D03*
D45*
X677539Y509941D02*
D03*
X657539D02*
D03*
X637539D02*
D03*
X697539D02*
D03*
X600689D02*
D03*
X581004D02*
D03*
D46*
X700787Y627362D02*
D03*
X717421Y542323D02*
D03*
Y555413D02*
D03*
Y568504D02*
D03*
Y581595D02*
D03*
Y529232D02*
D03*
Y516142D02*
D03*
X659449Y496161D02*
D03*
X672539D02*
D03*
X685630D02*
D03*
X698721D02*
D03*
X646358D02*
D03*
X633268D02*
D03*
X626279Y569685D02*
D03*
X613189D02*
D03*
X600098D02*
D03*
X587008D02*
D03*
X562008Y582776D02*
D03*
Y569882D02*
D03*
Y556791D02*
D03*
Y543701D02*
D03*
X573917Y569685D02*
D03*
Y556595D02*
D03*
Y543504D02*
D03*
Y582776D02*
D03*
X587008D02*
D03*
X600098D02*
D03*
X613189D02*
D03*
X626279D02*
D03*
X697638D02*
D03*
X678642D02*
D03*
X664567D02*
D03*
X652461D02*
D03*
X632972Y552854D02*
D03*
M02*
